<mxfile host="65bd71144e" pages="9">
    <diagram id="RoXqYrTcg_g-Ajld1b1c" name="Page-1">
        <mxGraphModel dx="730" dy="495" grid="1" gridSize="10" guides="1" tooltips="1" connect="1" arrows="1" fold="1" page="1" pageScale="1" pageWidth="827" pageHeight="1169" math="0" shadow="0">
            <root>
                <mxCell id="0"/>
                <mxCell id="1" parent="0"/>
                <mxCell id="pX41WGBZwgw1QbfTT8PG-2" value="" style="rounded=1;whiteSpace=wrap;html=1;" parent="1" vertex="1">
                    <mxGeometry x="40" y="120" width="440" height="100" as="geometry"/>
                </mxCell>
                <mxCell id="pX41WGBZwgw1QbfTT8PG-4" value="" style="rounded=1;whiteSpace=wrap;html=1;" parent="1" vertex="1">
                    <mxGeometry x="70" y="125" width="80" height="90" as="geometry"/>
                </mxCell>
                <mxCell id="pX41WGBZwgw1QbfTT8PG-1" value="&lt;font style=&quot;font-size: 16px&quot;&gt;&lt;b&gt;KUBERNETES NETWORK TOPOLOGY&lt;/b&gt;&lt;/font&gt;" style="text;html=1;strokeColor=none;fillColor=none;align=center;verticalAlign=middle;whiteSpace=wrap;rounded=0;" parent="1" vertex="1">
                    <mxGeometry x="230" y="40" width="350" height="20" as="geometry"/>
                </mxCell>
                <mxCell id="pX41WGBZwgw1QbfTT8PG-3" value="" style="fontColor=#0066CC;verticalAlign=top;verticalLabelPosition=bottom;labelPosition=center;align=center;html=1;outlineConnect=0;fillColor=#CCCCCC;strokeColor=#6881B3;gradientColor=none;gradientDirection=north;strokeWidth=2;shape=mxgraph.networks.desktop_pc;" parent="1" vertex="1">
                    <mxGeometry x="79" y="140" width="30" height="60" as="geometry"/>
                </mxCell>
                <mxCell id="pX41WGBZwgw1QbfTT8PG-5" style="edgeStyle=orthogonalEdgeStyle;rounded=0;orthogonalLoop=1;jettySize=auto;html=1;exitX=0.5;exitY=1;exitDx=0;exitDy=0;" parent="1" source="pX41WGBZwgw1QbfTT8PG-4" target="pX41WGBZwgw1QbfTT8PG-4" edge="1">
                    <mxGeometry relative="1" as="geometry"/>
                </mxCell>
                <mxCell id="pX41WGBZwgw1QbfTT8PG-6" value="POD" style="text;html=1;strokeColor=none;fillColor=none;align=center;verticalAlign=middle;whiteSpace=wrap;rounded=0;" parent="1" vertex="1">
                    <mxGeometry x="109" y="160" width="40" height="20" as="geometry"/>
                </mxCell>
                <mxCell id="pX41WGBZwgw1QbfTT8PG-7" value="" style="rounded=1;whiteSpace=wrap;html=1;" parent="1" vertex="1">
                    <mxGeometry x="170" y="125" width="80" height="90" as="geometry"/>
                </mxCell>
                <mxCell id="pX41WGBZwgw1QbfTT8PG-8" value="" style="fontColor=#0066CC;verticalAlign=top;verticalLabelPosition=bottom;labelPosition=center;align=center;html=1;outlineConnect=0;fillColor=#CCCCCC;strokeColor=#6881B3;gradientColor=none;gradientDirection=north;strokeWidth=2;shape=mxgraph.networks.desktop_pc;" parent="1" vertex="1">
                    <mxGeometry x="179" y="140" width="30" height="60" as="geometry"/>
                </mxCell>
                <mxCell id="pX41WGBZwgw1QbfTT8PG-9" value="POD" style="text;html=1;strokeColor=none;fillColor=none;align=center;verticalAlign=middle;whiteSpace=wrap;rounded=0;" parent="1" vertex="1">
                    <mxGeometry x="209" y="160" width="40" height="20" as="geometry"/>
                </mxCell>
                <mxCell id="pX41WGBZwgw1QbfTT8PG-10" value="kube-proxy" style="rounded=0;whiteSpace=wrap;html=1;rotation=90;fillColor=#f8cecc;strokeColor=#b85450;" parent="1" vertex="1">
                    <mxGeometry x="400" y="150" width="90" height="40" as="geometry"/>
                </mxCell>
                <mxCell id="pX41WGBZwgw1QbfTT8PG-11" value="" style="rounded=0;whiteSpace=wrap;html=1;fillColor=#f8cecc;strokeColor=#b85450;" parent="1" vertex="1">
                    <mxGeometry x="520" y="120" width="40" height="240" as="geometry"/>
                </mxCell>
                <mxCell id="pX41WGBZwgw1QbfTT8PG-16" value="" style="rounded=1;whiteSpace=wrap;html=1;" parent="1" vertex="1">
                    <mxGeometry x="40" y="260" width="440" height="100" as="geometry"/>
                </mxCell>
                <mxCell id="pX41WGBZwgw1QbfTT8PG-17" value="" style="rounded=1;whiteSpace=wrap;html=1;" parent="1" vertex="1">
                    <mxGeometry x="70" y="265" width="80" height="90" as="geometry"/>
                </mxCell>
                <mxCell id="pX41WGBZwgw1QbfTT8PG-18" value="" style="fontColor=#0066CC;verticalAlign=top;verticalLabelPosition=bottom;labelPosition=center;align=center;html=1;outlineConnect=0;fillColor=#CCCCCC;strokeColor=#6881B3;gradientColor=none;gradientDirection=north;strokeWidth=2;shape=mxgraph.networks.desktop_pc;" parent="1" vertex="1">
                    <mxGeometry x="79" y="280" width="30" height="60" as="geometry"/>
                </mxCell>
                <mxCell id="pX41WGBZwgw1QbfTT8PG-19" value="POD" style="text;html=1;strokeColor=none;fillColor=none;align=center;verticalAlign=middle;whiteSpace=wrap;rounded=0;" parent="1" vertex="1">
                    <mxGeometry x="109" y="300" width="40" height="20" as="geometry"/>
                </mxCell>
                <mxCell id="pX41WGBZwgw1QbfTT8PG-20" value="" style="rounded=1;whiteSpace=wrap;html=1;" parent="1" vertex="1">
                    <mxGeometry x="170" y="265" width="80" height="90" as="geometry"/>
                </mxCell>
                <mxCell id="pX41WGBZwgw1QbfTT8PG-21" value="" style="fontColor=#0066CC;verticalAlign=top;verticalLabelPosition=bottom;labelPosition=center;align=center;html=1;outlineConnect=0;fillColor=#CCCCCC;strokeColor=#6881B3;gradientColor=none;gradientDirection=north;strokeWidth=2;shape=mxgraph.networks.desktop_pc;" parent="1" vertex="1">
                    <mxGeometry x="179" y="280" width="30" height="60" as="geometry"/>
                </mxCell>
                <mxCell id="pX41WGBZwgw1QbfTT8PG-22" value="POD" style="text;html=1;strokeColor=none;fillColor=none;align=center;verticalAlign=middle;whiteSpace=wrap;rounded=0;" parent="1" vertex="1">
                    <mxGeometry x="209" y="300" width="40" height="20" as="geometry"/>
                </mxCell>
                <mxCell id="pX41WGBZwgw1QbfTT8PG-23" value="kube-proxy" style="rounded=0;whiteSpace=wrap;html=1;rotation=90;fillColor=#f8cecc;strokeColor=#b85450;" parent="1" vertex="1">
                    <mxGeometry x="400" y="290" width="90" height="40" as="geometry"/>
                </mxCell>
                <mxCell id="pX41WGBZwgw1QbfTT8PG-24" value="" style="ellipse;whiteSpace=wrap;html=1;aspect=fixed;fillColor=#dae8fc;strokeColor=#6c8ebf;" parent="1" vertex="1">
                    <mxGeometry x="117" y="180" width="24" height="24" as="geometry"/>
                </mxCell>
                <mxCell id="pX41WGBZwgw1QbfTT8PG-25" value="" style="ellipse;whiteSpace=wrap;html=1;aspect=fixed;fillColor=#dae8fc;strokeColor=#6c8ebf;" parent="1" vertex="1">
                    <mxGeometry x="217" y="180" width="24" height="24" as="geometry"/>
                </mxCell>
                <mxCell id="pX41WGBZwgw1QbfTT8PG-26" value="" style="ellipse;whiteSpace=wrap;html=1;aspect=fixed;fillColor=#dae8fc;strokeColor=#6c8ebf;" parent="1" vertex="1">
                    <mxGeometry x="217" y="320" width="24" height="24" as="geometry"/>
                </mxCell>
                <mxCell id="pX41WGBZwgw1QbfTT8PG-27" value="" style="ellipse;whiteSpace=wrap;html=1;aspect=fixed;fillColor=#dae8fc;strokeColor=#6c8ebf;" parent="1" vertex="1">
                    <mxGeometry x="117" y="320" width="24" height="24" as="geometry"/>
                </mxCell>
                <mxCell id="pX41WGBZwgw1QbfTT8PG-28" value="" style="rounded=1;whiteSpace=wrap;html=1;" parent="1" vertex="1">
                    <mxGeometry x="600" y="160" width="120" height="160" as="geometry"/>
                </mxCell>
                <mxCell id="pX41WGBZwgw1QbfTT8PG-29" value="Service" style="text;html=1;strokeColor=none;fillColor=none;align=center;verticalAlign=middle;whiteSpace=wrap;rounded=0;" parent="1" vertex="1">
                    <mxGeometry x="640" y="330" width="40" height="20" as="geometry"/>
                </mxCell>
                <mxCell id="pX41WGBZwgw1QbfTT8PG-30" value="" style="rounded=1;whiteSpace=wrap;html=1;" parent="1" vertex="1">
                    <mxGeometry x="620" y="200" width="80" height="80" as="geometry"/>
                </mxCell>
                <mxCell id="pX41WGBZwgw1QbfTT8PG-31" value="" style="outlineConnect=0;dashed=0;verticalLabelPosition=bottom;verticalAlign=top;align=center;html=1;shape=mxgraph.aws3.classic_load_balancer;fillColor=#F58534;gradientColor=none;" parent="1" vertex="1">
                    <mxGeometry x="645.5" y="210" width="29" height="32" as="geometry"/>
                </mxCell>
                <mxCell id="pX41WGBZwgw1QbfTT8PG-32" value="HTTP" style="text;html=1;strokeColor=none;fillColor=none;align=center;verticalAlign=middle;whiteSpace=wrap;rounded=0;" parent="1" vertex="1">
                    <mxGeometry x="640" y="250" width="40" height="20" as="geometry"/>
                </mxCell>
                <mxCell id="pX41WGBZwgw1QbfTT8PG-33" value="" style="ellipse;whiteSpace=wrap;html=1;aspect=fixed;fillColor=#d5e8d4;strokeColor=#82b366;" parent="1" vertex="1">
                    <mxGeometry x="690" y="270" width="24" height="24" as="geometry"/>
                </mxCell>
                <mxCell id="ktfHgUyS1iGVjG-PtV52-1" value="Pod network - blue" style="text;html=1;strokeColor=none;fillColor=none;align=center;verticalAlign=middle;whiteSpace=wrap;rounded=0;" parent="1" vertex="1">
                    <mxGeometry x="39" y="410" width="151" height="20" as="geometry"/>
                </mxCell>
                <mxCell id="ktfHgUyS1iGVjG-PtV52-2" value="Node network - pink" style="text;html=1;strokeColor=none;fillColor=none;align=center;verticalAlign=middle;whiteSpace=wrap;rounded=0;" parent="1" vertex="1">
                    <mxGeometry x="40" y="440" width="151" height="20" as="geometry"/>
                </mxCell>
                <mxCell id="ktfHgUyS1iGVjG-PtV52-3" value="Cluster network - green" style="text;html=1;strokeColor=none;fillColor=none;align=center;verticalAlign=middle;whiteSpace=wrap;rounded=0;" parent="1" vertex="1">
                    <mxGeometry x="50" y="470" width="151" height="20" as="geometry"/>
                </mxCell>
            </root>
        </mxGraphModel>
    </diagram>
    <diagram id="cgMmgMHMn9s7T8BWlnJ5" name="Page-2">
        <mxGraphModel dx="891" dy="382" grid="1" gridSize="10" guides="1" tooltips="1" connect="1" arrows="1" fold="1" page="1" pageScale="1" pageWidth="827" pageHeight="1169" math="0" shadow="0">
            <root>
                <mxCell id="41IYqVMtMYQYRQiKYqmt-0"/>
                <mxCell id="41IYqVMtMYQYRQiKYqmt-1" parent="41IYqVMtMYQYRQiKYqmt-0"/>
                <mxCell id="41IYqVMtMYQYRQiKYqmt-11" value="" style="rounded=1;whiteSpace=wrap;html=1;" parent="41IYqVMtMYQYRQiKYqmt-1" vertex="1">
                    <mxGeometry x="70" y="760" width="620" height="330" as="geometry"/>
                </mxCell>
                <mxCell id="41IYqVMtMYQYRQiKYqmt-20" value="" style="rounded=1;whiteSpace=wrap;html=1;" parent="41IYqVMtMYQYRQiKYqmt-1" vertex="1">
                    <mxGeometry x="115" y="800" width="80" height="90" as="geometry"/>
                </mxCell>
                <mxCell id="41IYqVMtMYQYRQiKYqmt-3" value="&lt;h1&gt;Pod Networking and Communication&amp;nbsp; I&lt;/h1&gt;&lt;p&gt;1. Inside a Pod&lt;/p&gt;" style="text;html=1;strokeColor=none;fillColor=none;spacing=5;spacingTop=-20;whiteSpace=wrap;overflow=hidden;rounded=0;" parent="41IYqVMtMYQYRQiKYqmt-1" vertex="1">
                    <mxGeometry x="130" y="20" width="530" height="80" as="geometry"/>
                </mxCell>
                <mxCell id="41IYqVMtMYQYRQiKYqmt-4" value="" style="rounded=1;whiteSpace=wrap;html=1;" parent="41IYqVMtMYQYRQiKYqmt-1" vertex="1">
                    <mxGeometry x="80" y="120" width="620" height="330" as="geometry"/>
                </mxCell>
                <mxCell id="41IYqVMtMYQYRQiKYqmt-5" value="" style="rounded=1;whiteSpace=wrap;html=1;" parent="41IYqVMtMYQYRQiKYqmt-1" vertex="1">
                    <mxGeometry x="120" y="330" width="210" height="110" as="geometry"/>
                </mxCell>
                <mxCell id="41IYqVMtMYQYRQiKYqmt-6" value="" style="fontColor=#0066CC;verticalAlign=top;verticalLabelPosition=bottom;labelPosition=center;align=center;html=1;outlineConnect=0;fillColor=#CCCCCC;strokeColor=#6881B3;gradientColor=none;gradientDirection=north;strokeWidth=2;shape=mxgraph.networks.desktop_pc;" parent="41IYqVMtMYQYRQiKYqmt-1" vertex="1">
                    <mxGeometry x="140" y="340" width="30" height="60" as="geometry"/>
                </mxCell>
                <mxCell id="41IYqVMtMYQYRQiKYqmt-7" value="" style="fontColor=#0066CC;verticalAlign=top;verticalLabelPosition=bottom;labelPosition=center;align=center;html=1;outlineConnect=0;fillColor=#CCCCCC;strokeColor=#6881B3;gradientColor=none;gradientDirection=north;strokeWidth=2;shape=mxgraph.networks.desktop_pc;" parent="41IYqVMtMYQYRQiKYqmt-1" vertex="1">
                    <mxGeometry x="200" y="340" width="30" height="60" as="geometry"/>
                </mxCell>
                <mxCell id="41IYqVMtMYQYRQiKYqmt-8" value="Pod" style="text;html=1;strokeColor=none;fillColor=none;align=center;verticalAlign=middle;whiteSpace=wrap;rounded=0;" parent="41IYqVMtMYQYRQiKYqmt-1" vertex="1">
                    <mxGeometry x="240" y="360" width="40" height="20" as="geometry"/>
                </mxCell>
                <mxCell id="41IYqVMtMYQYRQiKYqmt-9" value="localhost" style="text;html=1;strokeColor=none;fillColor=none;align=center;verticalAlign=middle;whiteSpace=wrap;rounded=0;" parent="41IYqVMtMYQYRQiKYqmt-1" vertex="1">
                    <mxGeometry x="150" y="410" width="40" height="20" as="geometry"/>
                </mxCell>
                <mxCell id="41IYqVMtMYQYRQiKYqmt-10" value="&lt;h1&gt;Pod Networking and Communication&amp;nbsp; II&lt;/h1&gt;&lt;p&gt;1. Inside a Pod&lt;/p&gt;&lt;p&gt;2. Pod to Pod within a Node&lt;/p&gt;&lt;p&gt;&lt;br&gt;&lt;/p&gt;" style="text;html=1;strokeColor=none;fillColor=none;spacing=5;spacingTop=-20;whiteSpace=wrap;overflow=hidden;rounded=0;" parent="41IYqVMtMYQYRQiKYqmt-1" vertex="1">
                    <mxGeometry x="120" y="480" width="530" height="140" as="geometry"/>
                </mxCell>
                <mxCell id="41IYqVMtMYQYRQiKYqmt-12" value="" style="rounded=1;whiteSpace=wrap;html=1;" parent="41IYqVMtMYQYRQiKYqmt-1" vertex="1">
                    <mxGeometry x="110" y="970" width="210" height="110" as="geometry"/>
                </mxCell>
                <mxCell id="41IYqVMtMYQYRQiKYqmt-13" value="" style="fontColor=#0066CC;verticalAlign=top;verticalLabelPosition=bottom;labelPosition=center;align=center;html=1;outlineConnect=0;fillColor=#CCCCCC;strokeColor=#6881B3;gradientColor=none;gradientDirection=north;strokeWidth=2;shape=mxgraph.networks.desktop_pc;" parent="41IYqVMtMYQYRQiKYqmt-1" vertex="1">
                    <mxGeometry x="130" y="980" width="30" height="60" as="geometry"/>
                </mxCell>
                <mxCell id="41IYqVMtMYQYRQiKYqmt-14" value="" style="fontColor=#0066CC;verticalAlign=top;verticalLabelPosition=bottom;labelPosition=center;align=center;html=1;outlineConnect=0;fillColor=#CCCCCC;strokeColor=#6881B3;gradientColor=none;gradientDirection=north;strokeWidth=2;shape=mxgraph.networks.desktop_pc;" parent="41IYqVMtMYQYRQiKYqmt-1" vertex="1">
                    <mxGeometry x="190" y="980" width="30" height="60" as="geometry"/>
                </mxCell>
                <mxCell id="41IYqVMtMYQYRQiKYqmt-15" value="Pod" style="text;html=1;strokeColor=none;fillColor=none;align=center;verticalAlign=middle;whiteSpace=wrap;rounded=0;" parent="41IYqVMtMYQYRQiKYqmt-1" vertex="1">
                    <mxGeometry x="230" y="1000" width="40" height="20" as="geometry"/>
                </mxCell>
                <mxCell id="41IYqVMtMYQYRQiKYqmt-16" value="localhost" style="text;html=1;strokeColor=none;fillColor=none;align=center;verticalAlign=middle;whiteSpace=wrap;rounded=0;" parent="41IYqVMtMYQYRQiKYqmt-1" vertex="1">
                    <mxGeometry x="140" y="1050" width="40" height="20" as="geometry"/>
                </mxCell>
                <mxCell id="41IYqVMtMYQYRQiKYqmt-19" value="" style="fontColor=#0066CC;verticalAlign=top;verticalLabelPosition=bottom;labelPosition=center;align=center;html=1;outlineConnect=0;fillColor=#CCCCCC;strokeColor=#6881B3;gradientColor=none;gradientDirection=north;strokeWidth=2;shape=mxgraph.networks.desktop_pc;" parent="41IYqVMtMYQYRQiKYqmt-1" vertex="1">
                    <mxGeometry x="125" y="820" width="30" height="60" as="geometry"/>
                </mxCell>
                <mxCell id="41IYqVMtMYQYRQiKYqmt-21" value="Pod" style="text;html=1;strokeColor=none;fillColor=none;align=center;verticalAlign=middle;whiteSpace=wrap;rounded=0;" parent="41IYqVMtMYQYRQiKYqmt-1" vertex="1">
                    <mxGeometry x="155" y="835" width="40" height="20" as="geometry"/>
                </mxCell>
                <mxCell id="41IYqVMtMYQYRQiKYqmt-22" value="" style="rounded=1;whiteSpace=wrap;html=1;" parent="41IYqVMtMYQYRQiKYqmt-1" vertex="1">
                    <mxGeometry x="200" y="800" width="80" height="90" as="geometry"/>
                </mxCell>
                <mxCell id="41IYqVMtMYQYRQiKYqmt-23" value="" style="fontColor=#0066CC;verticalAlign=top;verticalLabelPosition=bottom;labelPosition=center;align=center;html=1;outlineConnect=0;fillColor=#CCCCCC;strokeColor=#6881B3;gradientColor=none;gradientDirection=north;strokeWidth=2;shape=mxgraph.networks.desktop_pc;" parent="41IYqVMtMYQYRQiKYqmt-1" vertex="1">
                    <mxGeometry x="210" y="820" width="30" height="60" as="geometry"/>
                </mxCell>
                <mxCell id="41IYqVMtMYQYRQiKYqmt-24" value="Pod" style="text;html=1;strokeColor=none;fillColor=none;align=center;verticalAlign=middle;whiteSpace=wrap;rounded=0;" parent="41IYqVMtMYQYRQiKYqmt-1" vertex="1">
                    <mxGeometry x="245" y="840" width="35" height="20" as="geometry"/>
                </mxCell>
                <mxCell id="41IYqVMtMYQYRQiKYqmt-25" value="eth0" style="rounded=0;whiteSpace=wrap;html=1;fillColor=#ffe6cc;strokeColor=#d79b00;" parent="41IYqVMtMYQYRQiKYqmt-1" vertex="1">
                    <mxGeometry x="125" y="890" width="50" height="20" as="geometry"/>
                </mxCell>
                <mxCell id="41IYqVMtMYQYRQiKYqmt-26" value="eth0" style="rounded=0;whiteSpace=wrap;html=1;fillColor=#ffe6cc;strokeColor=#d79b00;" parent="41IYqVMtMYQYRQiKYqmt-1" vertex="1">
                    <mxGeometry x="130" y="950" width="50" height="20" as="geometry"/>
                </mxCell>
                <mxCell id="41IYqVMtMYQYRQiKYqmt-27" value="eth0" style="rounded=0;whiteSpace=wrap;html=1;fillColor=#ffe6cc;strokeColor=#d79b00;" parent="41IYqVMtMYQYRQiKYqmt-1" vertex="1">
                    <mxGeometry x="210" y="890" width="50" height="20" as="geometry"/>
                </mxCell>
                <mxCell id="41IYqVMtMYQYRQiKYqmt-29" value="bridge/tunnel" style="rounded=0;whiteSpace=wrap;html=1;fillColor=#ffe6cc;strokeColor=#d79b00;" parent="41IYqVMtMYQYRQiKYqmt-1" vertex="1">
                    <mxGeometry x="110" y="920" width="210" height="20" as="geometry"/>
                </mxCell>
                <mxCell id="41IYqVMtMYQYRQiKYqmt-30" value="&lt;font style=&quot;font-size: 14px&quot;&gt;&lt;b&gt;IP&lt;/b&gt;&lt;/font&gt;" style="text;html=1;strokeColor=none;fillColor=none;align=center;verticalAlign=middle;whiteSpace=wrap;rounded=0;" parent="41IYqVMtMYQYRQiKYqmt-1" vertex="1">
                    <mxGeometry x="155" y="855" width="40" height="20" as="geometry"/>
                </mxCell>
                <mxCell id="41IYqVMtMYQYRQiKYqmt-31" value="&lt;font style=&quot;font-size: 14px&quot;&gt;&lt;b&gt;IP&lt;/b&gt;&lt;/font&gt;" style="text;html=1;strokeColor=none;fillColor=none;align=center;verticalAlign=middle;whiteSpace=wrap;rounded=0;" parent="41IYqVMtMYQYRQiKYqmt-1" vertex="1">
                    <mxGeometry x="240" y="855" width="40" height="20" as="geometry"/>
                </mxCell>
            </root>
        </mxGraphModel>
    </diagram>
    <diagram id="JMJOKcnq_ERzJIqoC7QY" name="Page-3">
        <mxGraphModel dx="891" dy="382" grid="1" gridSize="10" guides="1" tooltips="1" connect="1" arrows="1" fold="1" page="1" pageScale="1" pageWidth="827" pageHeight="1169" math="0" shadow="0">
            <root>
                <mxCell id="Akkbfa_GQnicSLV7-SSy-0"/>
                <mxCell id="Akkbfa_GQnicSLV7-SSy-1" parent="Akkbfa_GQnicSLV7-SSy-0"/>
                <mxCell id="3IA6LMNiJBzEXdMDsDNz-33" value="" style="rounded=1;whiteSpace=wrap;html=1;" parent="Akkbfa_GQnicSLV7-SSy-1" vertex="1">
                    <mxGeometry x="85" y="665" width="475" height="135" as="geometry"/>
                </mxCell>
                <mxCell id="3IA6LMNiJBzEXdMDsDNz-0" value="" style="rounded=1;whiteSpace=wrap;html=1;" parent="Akkbfa_GQnicSLV7-SSy-1" vertex="1">
                    <mxGeometry x="80" y="320" width="480" height="330" as="geometry"/>
                </mxCell>
                <mxCell id="3IA6LMNiJBzEXdMDsDNz-1" value="" style="rounded=1;whiteSpace=wrap;html=1;" parent="Akkbfa_GQnicSLV7-SSy-1" vertex="1">
                    <mxGeometry x="125" y="360" width="80" height="90" as="geometry"/>
                </mxCell>
                <mxCell id="3IA6LMNiJBzEXdMDsDNz-9" value="&lt;h1&gt;Pod Networking and Communication&amp;nbsp; III&lt;/h1&gt;&lt;p&gt;1. Inside a Pod&lt;/p&gt;&lt;p&gt;2. Pod to Pod within a Node&lt;/p&gt;&lt;p&gt;3. Pod to Pod on another Node&lt;/p&gt;" style="text;html=1;strokeColor=none;fillColor=none;spacing=5;spacingTop=-20;whiteSpace=wrap;overflow=hidden;rounded=0;" parent="Akkbfa_GQnicSLV7-SSy-1" vertex="1">
                    <mxGeometry x="130" y="40" width="530" height="140" as="geometry"/>
                </mxCell>
                <mxCell id="3IA6LMNiJBzEXdMDsDNz-10" value="" style="rounded=1;whiteSpace=wrap;html=1;" parent="Akkbfa_GQnicSLV7-SSy-1" vertex="1">
                    <mxGeometry x="120" y="530" width="210" height="110" as="geometry"/>
                </mxCell>
                <mxCell id="3IA6LMNiJBzEXdMDsDNz-11" value="" style="fontColor=#0066CC;verticalAlign=top;verticalLabelPosition=bottom;labelPosition=center;align=center;html=1;outlineConnect=0;fillColor=#CCCCCC;strokeColor=#6881B3;gradientColor=none;gradientDirection=north;strokeWidth=2;shape=mxgraph.networks.desktop_pc;" parent="Akkbfa_GQnicSLV7-SSy-1" vertex="1">
                    <mxGeometry x="140" y="540" width="30" height="60" as="geometry"/>
                </mxCell>
                <mxCell id="3IA6LMNiJBzEXdMDsDNz-12" value="" style="fontColor=#0066CC;verticalAlign=top;verticalLabelPosition=bottom;labelPosition=center;align=center;html=1;outlineConnect=0;fillColor=#CCCCCC;strokeColor=#6881B3;gradientColor=none;gradientDirection=north;strokeWidth=2;shape=mxgraph.networks.desktop_pc;" parent="Akkbfa_GQnicSLV7-SSy-1" vertex="1">
                    <mxGeometry x="200" y="540" width="30" height="60" as="geometry"/>
                </mxCell>
                <mxCell id="3IA6LMNiJBzEXdMDsDNz-13" value="Pod" style="text;html=1;strokeColor=none;fillColor=none;align=center;verticalAlign=middle;whiteSpace=wrap;rounded=0;" parent="Akkbfa_GQnicSLV7-SSy-1" vertex="1">
                    <mxGeometry x="240" y="560" width="40" height="20" as="geometry"/>
                </mxCell>
                <mxCell id="3IA6LMNiJBzEXdMDsDNz-14" value="localhost" style="text;html=1;strokeColor=none;fillColor=none;align=center;verticalAlign=middle;whiteSpace=wrap;rounded=0;" parent="Akkbfa_GQnicSLV7-SSy-1" vertex="1">
                    <mxGeometry x="150" y="610" width="40" height="20" as="geometry"/>
                </mxCell>
                <mxCell id="3IA6LMNiJBzEXdMDsDNz-15" value="" style="fontColor=#0066CC;verticalAlign=top;verticalLabelPosition=bottom;labelPosition=center;align=center;html=1;outlineConnect=0;fillColor=#CCCCCC;strokeColor=#6881B3;gradientColor=none;gradientDirection=north;strokeWidth=2;shape=mxgraph.networks.desktop_pc;" parent="Akkbfa_GQnicSLV7-SSy-1" vertex="1">
                    <mxGeometry x="135" y="380" width="30" height="60" as="geometry"/>
                </mxCell>
                <mxCell id="3IA6LMNiJBzEXdMDsDNz-16" value="Pod" style="text;html=1;strokeColor=none;fillColor=none;align=center;verticalAlign=middle;whiteSpace=wrap;rounded=0;" parent="Akkbfa_GQnicSLV7-SSy-1" vertex="1">
                    <mxGeometry x="165" y="395" width="40" height="20" as="geometry"/>
                </mxCell>
                <mxCell id="3IA6LMNiJBzEXdMDsDNz-17" value="" style="rounded=1;whiteSpace=wrap;html=1;" parent="Akkbfa_GQnicSLV7-SSy-1" vertex="1">
                    <mxGeometry x="210" y="360" width="80" height="90" as="geometry"/>
                </mxCell>
                <mxCell id="3IA6LMNiJBzEXdMDsDNz-18" value="" style="fontColor=#0066CC;verticalAlign=top;verticalLabelPosition=bottom;labelPosition=center;align=center;html=1;outlineConnect=0;fillColor=#CCCCCC;strokeColor=#6881B3;gradientColor=none;gradientDirection=north;strokeWidth=2;shape=mxgraph.networks.desktop_pc;" parent="Akkbfa_GQnicSLV7-SSy-1" vertex="1">
                    <mxGeometry x="220" y="380" width="30" height="60" as="geometry"/>
                </mxCell>
                <mxCell id="3IA6LMNiJBzEXdMDsDNz-19" value="Pod" style="text;html=1;strokeColor=none;fillColor=none;align=center;verticalAlign=middle;whiteSpace=wrap;rounded=0;" parent="Akkbfa_GQnicSLV7-SSy-1" vertex="1">
                    <mxGeometry x="255" y="400" width="35" height="20" as="geometry"/>
                </mxCell>
                <mxCell id="3IA6LMNiJBzEXdMDsDNz-20" value="eth0" style="rounded=0;whiteSpace=wrap;html=1;fillColor=#ffe6cc;strokeColor=#d79b00;" parent="Akkbfa_GQnicSLV7-SSy-1" vertex="1">
                    <mxGeometry x="135" y="450" width="50" height="20" as="geometry"/>
                </mxCell>
                <mxCell id="3IA6LMNiJBzEXdMDsDNz-21" value="eth0" style="rounded=0;whiteSpace=wrap;html=1;fillColor=#ffe6cc;strokeColor=#d79b00;" parent="Akkbfa_GQnicSLV7-SSy-1" vertex="1">
                    <mxGeometry x="140" y="510" width="50" height="20" as="geometry"/>
                </mxCell>
                <mxCell id="3IA6LMNiJBzEXdMDsDNz-22" value="eth0" style="rounded=0;whiteSpace=wrap;html=1;fillColor=#ffe6cc;strokeColor=#d79b00;" parent="Akkbfa_GQnicSLV7-SSy-1" vertex="1">
                    <mxGeometry x="220" y="450" width="50" height="20" as="geometry"/>
                </mxCell>
                <mxCell id="3IA6LMNiJBzEXdMDsDNz-23" value="bridge/tunnel" style="rounded=0;whiteSpace=wrap;html=1;fillColor=#ffe6cc;strokeColor=#d79b00;" parent="Akkbfa_GQnicSLV7-SSy-1" vertex="1">
                    <mxGeometry x="120" y="480" width="210" height="20" as="geometry"/>
                </mxCell>
                <mxCell id="3IA6LMNiJBzEXdMDsDNz-24" value="&lt;font style=&quot;font-size: 14px&quot;&gt;&lt;b&gt;IP&lt;/b&gt;&lt;/font&gt;" style="text;html=1;strokeColor=none;fillColor=none;align=center;verticalAlign=middle;whiteSpace=wrap;rounded=0;" parent="Akkbfa_GQnicSLV7-SSy-1" vertex="1">
                    <mxGeometry x="165" y="415" width="40" height="20" as="geometry"/>
                </mxCell>
                <mxCell id="3IA6LMNiJBzEXdMDsDNz-25" value="&lt;font style=&quot;font-size: 14px&quot;&gt;&lt;b&gt;IP&lt;/b&gt;&lt;/font&gt;" style="text;html=1;strokeColor=none;fillColor=none;align=center;verticalAlign=middle;whiteSpace=wrap;rounded=0;" parent="Akkbfa_GQnicSLV7-SSy-1" vertex="1">
                    <mxGeometry x="250" y="415" width="40" height="20" as="geometry"/>
                </mxCell>
                <mxCell id="3IA6LMNiJBzEXdMDsDNz-26" value="Layer 2/3 or Overlay" style="rounded=0;whiteSpace=wrap;html=1;rotation=90;fillColor=#ffe6cc;strokeColor=#d79b00;" parent="Akkbfa_GQnicSLV7-SSy-1" vertex="1">
                    <mxGeometry x="380" y="540" width="480" height="40" as="geometry"/>
                </mxCell>
                <mxCell id="3IA6LMNiJBzEXdMDsDNz-27" value="" style="rounded=1;whiteSpace=wrap;html=1;" parent="Akkbfa_GQnicSLV7-SSy-1" vertex="1">
                    <mxGeometry x="105" y="690" width="80" height="90" as="geometry"/>
                </mxCell>
                <mxCell id="3IA6LMNiJBzEXdMDsDNz-28" value="" style="fontColor=#0066CC;verticalAlign=top;verticalLabelPosition=bottom;labelPosition=center;align=center;html=1;outlineConnect=0;fillColor=#CCCCCC;strokeColor=#6881B3;gradientColor=none;gradientDirection=north;strokeWidth=2;shape=mxgraph.networks.desktop_pc;" parent="Akkbfa_GQnicSLV7-SSy-1" vertex="1">
                    <mxGeometry x="115" y="710" width="30" height="60" as="geometry"/>
                </mxCell>
                <mxCell id="3IA6LMNiJBzEXdMDsDNz-29" value="Pod" style="text;html=1;strokeColor=none;fillColor=none;align=center;verticalAlign=middle;whiteSpace=wrap;rounded=0;" parent="Akkbfa_GQnicSLV7-SSy-1" vertex="1">
                    <mxGeometry x="145" y="725" width="40" height="20" as="geometry"/>
                </mxCell>
                <mxCell id="3IA6LMNiJBzEXdMDsDNz-30" value="eth0" style="rounded=0;whiteSpace=wrap;html=1;fillColor=#ffe6cc;strokeColor=#d79b00;" parent="Akkbfa_GQnicSLV7-SSy-1" vertex="1">
                    <mxGeometry x="160" y="700" width="50" height="20" as="geometry"/>
                </mxCell>
                <mxCell id="3IA6LMNiJBzEXdMDsDNz-31" value="&lt;font style=&quot;font-size: 14px&quot;&gt;&lt;b&gt;IP&lt;/b&gt;&lt;/font&gt;" style="text;html=1;strokeColor=none;fillColor=none;align=center;verticalAlign=middle;whiteSpace=wrap;rounded=0;" parent="Akkbfa_GQnicSLV7-SSy-1" vertex="1">
                    <mxGeometry x="145" y="745" width="40" height="20" as="geometry"/>
                </mxCell>
            </root>
        </mxGraphModel>
    </diagram>
    <diagram id="3JYjAKTM_jdP55WsSu5Z" name="Page-4">
        <mxGraphModel dx="891" dy="382" grid="1" gridSize="10" guides="1" tooltips="1" connect="1" arrows="1" fold="1" page="1" pageScale="1" pageWidth="827" pageHeight="1169" math="0" shadow="0">
            <root>
                <mxCell id="brdFaOzu3BIiRsrIz61h-0"/>
                <mxCell id="brdFaOzu3BIiRsrIz61h-1" parent="brdFaOzu3BIiRsrIz61h-0"/>
                <mxCell id="brdFaOzu3BIiRsrIz61h-2" value="" style="rounded=1;whiteSpace=wrap;html=1;" parent="brdFaOzu3BIiRsrIz61h-1" vertex="1">
                    <mxGeometry x="85" y="665" width="475" height="135" as="geometry"/>
                </mxCell>
                <mxCell id="brdFaOzu3BIiRsrIz61h-3" value="" style="rounded=1;whiteSpace=wrap;html=1;" parent="brdFaOzu3BIiRsrIz61h-1" vertex="1">
                    <mxGeometry x="80" y="320" width="480" height="330" as="geometry"/>
                </mxCell>
                <mxCell id="brdFaOzu3BIiRsrIz61h-4" value="" style="rounded=1;whiteSpace=wrap;html=1;" parent="brdFaOzu3BIiRsrIz61h-1" vertex="1">
                    <mxGeometry x="125" y="360" width="80" height="90" as="geometry"/>
                </mxCell>
                <mxCell id="brdFaOzu3BIiRsrIz61h-5" value="&lt;h1&gt;Pod Networking and Communication&amp;nbsp; IV&lt;/h1&gt;&lt;p&gt;1. Inside a Pod&lt;/p&gt;&lt;p&gt;2. Pod to Pod within a Node&lt;/p&gt;&lt;p&gt;3. Pod to Pod on another Node&lt;/p&gt;&lt;p&gt;4. Services&lt;/p&gt;" style="text;html=1;strokeColor=none;fillColor=none;spacing=5;spacingTop=-20;whiteSpace=wrap;overflow=hidden;rounded=0;" parent="brdFaOzu3BIiRsrIz61h-1" vertex="1">
                    <mxGeometry x="130" y="40" width="530" height="140" as="geometry"/>
                </mxCell>
                <mxCell id="brdFaOzu3BIiRsrIz61h-6" value="" style="rounded=1;whiteSpace=wrap;html=1;" parent="brdFaOzu3BIiRsrIz61h-1" vertex="1">
                    <mxGeometry x="120" y="530" width="210" height="110" as="geometry"/>
                </mxCell>
                <mxCell id="brdFaOzu3BIiRsrIz61h-7" value="" style="fontColor=#0066CC;verticalAlign=top;verticalLabelPosition=bottom;labelPosition=center;align=center;html=1;outlineConnect=0;fillColor=#CCCCCC;strokeColor=#6881B3;gradientColor=none;gradientDirection=north;strokeWidth=2;shape=mxgraph.networks.desktop_pc;" parent="brdFaOzu3BIiRsrIz61h-1" vertex="1">
                    <mxGeometry x="140" y="540" width="30" height="60" as="geometry"/>
                </mxCell>
                <mxCell id="brdFaOzu3BIiRsrIz61h-8" value="" style="fontColor=#0066CC;verticalAlign=top;verticalLabelPosition=bottom;labelPosition=center;align=center;html=1;outlineConnect=0;fillColor=#CCCCCC;strokeColor=#6881B3;gradientColor=none;gradientDirection=north;strokeWidth=2;shape=mxgraph.networks.desktop_pc;" parent="brdFaOzu3BIiRsrIz61h-1" vertex="1">
                    <mxGeometry x="200" y="540" width="30" height="60" as="geometry"/>
                </mxCell>
                <mxCell id="brdFaOzu3BIiRsrIz61h-9" value="Pod" style="text;html=1;strokeColor=none;fillColor=none;align=center;verticalAlign=middle;whiteSpace=wrap;rounded=0;" parent="brdFaOzu3BIiRsrIz61h-1" vertex="1">
                    <mxGeometry x="240" y="560" width="40" height="20" as="geometry"/>
                </mxCell>
                <mxCell id="brdFaOzu3BIiRsrIz61h-10" value="localhost" style="text;html=1;strokeColor=none;fillColor=none;align=center;verticalAlign=middle;whiteSpace=wrap;rounded=0;" parent="brdFaOzu3BIiRsrIz61h-1" vertex="1">
                    <mxGeometry x="150" y="610" width="40" height="20" as="geometry"/>
                </mxCell>
                <mxCell id="brdFaOzu3BIiRsrIz61h-11" value="" style="fontColor=#0066CC;verticalAlign=top;verticalLabelPosition=bottom;labelPosition=center;align=center;html=1;outlineConnect=0;fillColor=#CCCCCC;strokeColor=#6881B3;gradientColor=none;gradientDirection=north;strokeWidth=2;shape=mxgraph.networks.desktop_pc;" parent="brdFaOzu3BIiRsrIz61h-1" vertex="1">
                    <mxGeometry x="135" y="380" width="30" height="60" as="geometry"/>
                </mxCell>
                <mxCell id="brdFaOzu3BIiRsrIz61h-12" value="Pod" style="text;html=1;strokeColor=none;fillColor=none;align=center;verticalAlign=middle;whiteSpace=wrap;rounded=0;" parent="brdFaOzu3BIiRsrIz61h-1" vertex="1">
                    <mxGeometry x="165" y="395" width="40" height="20" as="geometry"/>
                </mxCell>
                <mxCell id="brdFaOzu3BIiRsrIz61h-13" value="" style="rounded=1;whiteSpace=wrap;html=1;" parent="brdFaOzu3BIiRsrIz61h-1" vertex="1">
                    <mxGeometry x="210" y="360" width="80" height="90" as="geometry"/>
                </mxCell>
                <mxCell id="brdFaOzu3BIiRsrIz61h-14" value="" style="fontColor=#0066CC;verticalAlign=top;verticalLabelPosition=bottom;labelPosition=center;align=center;html=1;outlineConnect=0;fillColor=#CCCCCC;strokeColor=#6881B3;gradientColor=none;gradientDirection=north;strokeWidth=2;shape=mxgraph.networks.desktop_pc;" parent="brdFaOzu3BIiRsrIz61h-1" vertex="1">
                    <mxGeometry x="220" y="380" width="30" height="60" as="geometry"/>
                </mxCell>
                <mxCell id="brdFaOzu3BIiRsrIz61h-15" value="Pod" style="text;html=1;strokeColor=none;fillColor=none;align=center;verticalAlign=middle;whiteSpace=wrap;rounded=0;" parent="brdFaOzu3BIiRsrIz61h-1" vertex="1">
                    <mxGeometry x="255" y="400" width="35" height="20" as="geometry"/>
                </mxCell>
                <mxCell id="brdFaOzu3BIiRsrIz61h-16" value="eth0" style="rounded=0;whiteSpace=wrap;html=1;fillColor=#ffe6cc;strokeColor=#d79b00;" parent="brdFaOzu3BIiRsrIz61h-1" vertex="1">
                    <mxGeometry x="135" y="450" width="50" height="20" as="geometry"/>
                </mxCell>
                <mxCell id="brdFaOzu3BIiRsrIz61h-17" value="eth0" style="rounded=0;whiteSpace=wrap;html=1;fillColor=#ffe6cc;strokeColor=#d79b00;" parent="brdFaOzu3BIiRsrIz61h-1" vertex="1">
                    <mxGeometry x="140" y="510" width="50" height="20" as="geometry"/>
                </mxCell>
                <mxCell id="brdFaOzu3BIiRsrIz61h-18" value="eth0" style="rounded=0;whiteSpace=wrap;html=1;fillColor=#ffe6cc;strokeColor=#d79b00;" parent="brdFaOzu3BIiRsrIz61h-1" vertex="1">
                    <mxGeometry x="220" y="450" width="50" height="20" as="geometry"/>
                </mxCell>
                <mxCell id="brdFaOzu3BIiRsrIz61h-19" value="bridge/tunnel" style="rounded=0;whiteSpace=wrap;html=1;fillColor=#ffe6cc;strokeColor=#d79b00;" parent="brdFaOzu3BIiRsrIz61h-1" vertex="1">
                    <mxGeometry x="120" y="480" width="210" height="20" as="geometry"/>
                </mxCell>
                <mxCell id="brdFaOzu3BIiRsrIz61h-20" value="&lt;font style=&quot;font-size: 14px&quot;&gt;&lt;b&gt;IP&lt;/b&gt;&lt;/font&gt;" style="text;html=1;strokeColor=none;fillColor=none;align=center;verticalAlign=middle;whiteSpace=wrap;rounded=0;" parent="brdFaOzu3BIiRsrIz61h-1" vertex="1">
                    <mxGeometry x="165" y="415" width="40" height="20" as="geometry"/>
                </mxCell>
                <mxCell id="brdFaOzu3BIiRsrIz61h-21" value="&lt;font style=&quot;font-size: 14px&quot;&gt;&lt;b&gt;IP&lt;/b&gt;&lt;/font&gt;" style="text;html=1;strokeColor=none;fillColor=none;align=center;verticalAlign=middle;whiteSpace=wrap;rounded=0;" parent="brdFaOzu3BIiRsrIz61h-1" vertex="1">
                    <mxGeometry x="250" y="415" width="40" height="20" as="geometry"/>
                </mxCell>
                <mxCell id="brdFaOzu3BIiRsrIz61h-22" value="Layer 2/3 or Overlay" style="rounded=0;whiteSpace=wrap;html=1;rotation=90;fillColor=#ffe6cc;strokeColor=#d79b00;" parent="brdFaOzu3BIiRsrIz61h-1" vertex="1">
                    <mxGeometry x="380" y="540" width="480" height="40" as="geometry"/>
                </mxCell>
                <mxCell id="brdFaOzu3BIiRsrIz61h-23" value="" style="rounded=1;whiteSpace=wrap;html=1;" parent="brdFaOzu3BIiRsrIz61h-1" vertex="1">
                    <mxGeometry x="105" y="690" width="80" height="90" as="geometry"/>
                </mxCell>
                <mxCell id="brdFaOzu3BIiRsrIz61h-24" value="" style="fontColor=#0066CC;verticalAlign=top;verticalLabelPosition=bottom;labelPosition=center;align=center;html=1;outlineConnect=0;fillColor=#CCCCCC;strokeColor=#6881B3;gradientColor=none;gradientDirection=north;strokeWidth=2;shape=mxgraph.networks.desktop_pc;" parent="brdFaOzu3BIiRsrIz61h-1" vertex="1">
                    <mxGeometry x="115" y="710" width="30" height="60" as="geometry"/>
                </mxCell>
                <mxCell id="brdFaOzu3BIiRsrIz61h-25" value="Pod" style="text;html=1;strokeColor=none;fillColor=none;align=center;verticalAlign=middle;whiteSpace=wrap;rounded=0;" parent="brdFaOzu3BIiRsrIz61h-1" vertex="1">
                    <mxGeometry x="145" y="725" width="40" height="20" as="geometry"/>
                </mxCell>
                <mxCell id="brdFaOzu3BIiRsrIz61h-26" value="eth0" style="rounded=0;whiteSpace=wrap;html=1;fillColor=#ffe6cc;strokeColor=#d79b00;" parent="brdFaOzu3BIiRsrIz61h-1" vertex="1">
                    <mxGeometry x="160" y="700" width="50" height="20" as="geometry"/>
                </mxCell>
                <mxCell id="brdFaOzu3BIiRsrIz61h-27" value="&lt;font style=&quot;font-size: 14px&quot;&gt;&lt;b&gt;IP&lt;/b&gt;&lt;/font&gt;" style="text;html=1;strokeColor=none;fillColor=none;align=center;verticalAlign=middle;whiteSpace=wrap;rounded=0;" parent="brdFaOzu3BIiRsrIz61h-1" vertex="1">
                    <mxGeometry x="145" y="745" width="40" height="20" as="geometry"/>
                </mxCell>
                <mxCell id="brdFaOzu3BIiRsrIz61h-28" value="kube-proxy" style="rounded=0;whiteSpace=wrap;html=1;rotation=90;fillColor=#ffe6cc;strokeColor=#d79b00;" parent="brdFaOzu3BIiRsrIz61h-1" vertex="1">
                    <mxGeometry x="470" y="717.5" width="120" height="30" as="geometry"/>
                </mxCell>
                <mxCell id="brdFaOzu3BIiRsrIz61h-29" value="kube-proxy" style="rounded=0;whiteSpace=wrap;html=1;rotation=90;fillColor=#ffe6cc;strokeColor=#d79b00;" parent="brdFaOzu3BIiRsrIz61h-1" vertex="1">
                    <mxGeometry x="400" y="470" width="260" height="30" as="geometry"/>
                </mxCell>
                <mxCell id="UY4smCwZdLgYrLZa5geg-0" value="" style="rounded=1;whiteSpace=wrap;html=1;" parent="brdFaOzu3BIiRsrIz61h-1" vertex="1">
                    <mxGeometry x="420" y="415" width="80" height="80" as="geometry"/>
                </mxCell>
                <mxCell id="UY4smCwZdLgYrLZa5geg-1" value="" style="outlineConnect=0;dashed=0;verticalLabelPosition=bottom;verticalAlign=top;align=center;html=1;shape=mxgraph.aws3.classic_load_balancer;fillColor=#F58534;gradientColor=none;" parent="brdFaOzu3BIiRsrIz61h-1" vertex="1">
                    <mxGeometry x="445.5" y="425" width="29" height="32" as="geometry"/>
                </mxCell>
                <mxCell id="UY4smCwZdLgYrLZa5geg-2" value="HTTP" style="text;html=1;strokeColor=none;fillColor=none;align=center;verticalAlign=middle;whiteSpace=wrap;rounded=0;" parent="brdFaOzu3BIiRsrIz61h-1" vertex="1">
                    <mxGeometry x="440" y="465" width="40" height="20" as="geometry"/>
                </mxCell>
                <mxCell id="H1sMOhSbWeAUMv4JDlDn-0" value="" style="outlineConnect=0;dashed=0;verticalLabelPosition=bottom;verticalAlign=top;align=center;html=1;shape=mxgraph.aws3.internet_gateway;fillColor=#F58534;gradientColor=none;" parent="brdFaOzu3BIiRsrIz61h-1" vertex="1">
                    <mxGeometry x="740" y="400" width="69" height="72" as="geometry"/>
                </mxCell>
                <mxCell id="H1sMOhSbWeAUMv4JDlDn-1" value="" style="shape=flexArrow;endArrow=classic;html=1;entryX=0.327;entryY=-0.033;entryDx=0;entryDy=0;entryPerimeter=0;" parent="brdFaOzu3BIiRsrIz61h-1" target="brdFaOzu3BIiRsrIz61h-29" edge="1">
                    <mxGeometry width="50" height="50" relative="1" as="geometry">
                        <mxPoint x="730" y="440" as="sourcePoint"/>
                        <mxPoint x="760" y="390" as="targetPoint"/>
                    </mxGeometry>
                </mxCell>
            </root>
        </mxGraphModel>
    </diagram>
    <diagram id="lCJRwz_A8Oxy8UTxhBQi" name="Page-5">
        <mxGraphModel dx="891" dy="382" grid="1" gridSize="10" guides="1" tooltips="1" connect="1" arrows="1" fold="1" page="1" pageScale="1" pageWidth="827" pageHeight="1169" math="0" shadow="0">
            <root>
                <mxCell id="nNRLO8aE0rF6P_CMcCFR-0"/>
                <mxCell id="nNRLO8aE0rF6P_CMcCFR-1" parent="nNRLO8aE0rF6P_CMcCFR-0"/>
                <mxCell id="nNRLO8aE0rF6P_CMcCFR-3" value="" style="rounded=1;whiteSpace=wrap;html=1;" parent="nNRLO8aE0rF6P_CMcCFR-1" vertex="1">
                    <mxGeometry x="80" y="320" width="370" height="330" as="geometry"/>
                </mxCell>
                <mxCell id="nNRLO8aE0rF6P_CMcCFR-4" value="" style="rounded=1;whiteSpace=wrap;html=1;" parent="nNRLO8aE0rF6P_CMcCFR-1" vertex="1">
                    <mxGeometry x="125" y="360" width="80" height="90" as="geometry"/>
                </mxCell>
                <mxCell id="nNRLO8aE0rF6P_CMcCFR-5" value="&lt;h1&gt;Understanding Services I&lt;/h1&gt;" style="text;html=1;strokeColor=none;fillColor=none;spacing=5;spacingTop=-20;whiteSpace=wrap;overflow=hidden;rounded=0;" parent="nNRLO8aE0rF6P_CMcCFR-1" vertex="1">
                    <mxGeometry x="130" y="40" width="530" height="50" as="geometry"/>
                </mxCell>
                <mxCell id="nNRLO8aE0rF6P_CMcCFR-11" value="" style="fontColor=#0066CC;verticalAlign=top;verticalLabelPosition=bottom;labelPosition=center;align=center;html=1;outlineConnect=0;fillColor=#CCCCCC;strokeColor=#6881B3;gradientColor=none;gradientDirection=north;strokeWidth=2;shape=mxgraph.networks.desktop_pc;" parent="nNRLO8aE0rF6P_CMcCFR-1" vertex="1">
                    <mxGeometry x="135" y="380" width="30" height="60" as="geometry"/>
                </mxCell>
                <mxCell id="nNRLO8aE0rF6P_CMcCFR-12" value="Pod" style="text;html=1;strokeColor=none;fillColor=none;align=center;verticalAlign=middle;whiteSpace=wrap;rounded=0;" parent="nNRLO8aE0rF6P_CMcCFR-1" vertex="1">
                    <mxGeometry x="165" y="395" width="40" height="20" as="geometry"/>
                </mxCell>
                <mxCell id="nNRLO8aE0rF6P_CMcCFR-13" value="" style="rounded=1;whiteSpace=wrap;html=1;" parent="nNRLO8aE0rF6P_CMcCFR-1" vertex="1">
                    <mxGeometry x="210" y="360" width="80" height="90" as="geometry"/>
                </mxCell>
                <mxCell id="nNRLO8aE0rF6P_CMcCFR-14" value="" style="fontColor=#0066CC;verticalAlign=top;verticalLabelPosition=bottom;labelPosition=center;align=center;html=1;outlineConnect=0;fillColor=#CCCCCC;strokeColor=#6881B3;gradientColor=none;gradientDirection=north;strokeWidth=2;shape=mxgraph.networks.desktop_pc;" parent="nNRLO8aE0rF6P_CMcCFR-1" vertex="1">
                    <mxGeometry x="220" y="380" width="30" height="60" as="geometry"/>
                </mxCell>
                <mxCell id="nNRLO8aE0rF6P_CMcCFR-15" value="Pod" style="text;html=1;strokeColor=none;fillColor=none;align=center;verticalAlign=middle;whiteSpace=wrap;rounded=0;" parent="nNRLO8aE0rF6P_CMcCFR-1" vertex="1">
                    <mxGeometry x="255" y="395" width="35" height="20" as="geometry"/>
                </mxCell>
                <mxCell id="nNRLO8aE0rF6P_CMcCFR-23" value="" style="rounded=1;whiteSpace=wrap;html=1;" parent="nNRLO8aE0rF6P_CMcCFR-1" vertex="1">
                    <mxGeometry x="480" y="320" width="100" height="330" as="geometry"/>
                </mxCell>
                <mxCell id="nNRLO8aE0rF6P_CMcCFR-30" value="" style="rounded=1;whiteSpace=wrap;html=1;" parent="nNRLO8aE0rF6P_CMcCFR-1" vertex="1">
                    <mxGeometry x="491" y="380" width="80" height="80" as="geometry"/>
                </mxCell>
                <mxCell id="nNRLO8aE0rF6P_CMcCFR-31" value="" style="outlineConnect=0;dashed=0;verticalLabelPosition=bottom;verticalAlign=top;align=center;html=1;shape=mxgraph.aws3.classic_load_balancer;fillColor=#F58534;gradientColor=none;" parent="nNRLO8aE0rF6P_CMcCFR-1" vertex="1">
                    <mxGeometry x="516.5" y="390" width="29" height="32" as="geometry"/>
                </mxCell>
                <mxCell id="nNRLO8aE0rF6P_CMcCFR-32" value="HTTP" style="text;html=1;strokeColor=none;fillColor=none;align=center;verticalAlign=middle;whiteSpace=wrap;rounded=0;" parent="nNRLO8aE0rF6P_CMcCFR-1" vertex="1">
                    <mxGeometry x="511" y="430" width="40" height="20" as="geometry"/>
                </mxCell>
                <mxCell id="nNRLO8aE0rF6P_CMcCFR-33" value="" style="outlineConnect=0;dashed=0;verticalLabelPosition=bottom;verticalAlign=top;align=center;html=1;shape=mxgraph.aws3.internet_gateway;fillColor=#F58534;gradientColor=none;" parent="nNRLO8aE0rF6P_CMcCFR-1" vertex="1">
                    <mxGeometry x="690" y="384" width="69" height="72" as="geometry"/>
                </mxCell>
                <mxCell id="nNRLO8aE0rF6P_CMcCFR-34" value="" style="shape=flexArrow;endArrow=classic;html=1;" parent="nNRLO8aE0rF6P_CMcCFR-1" edge="1">
                    <mxGeometry width="50" height="50" relative="1" as="geometry">
                        <mxPoint x="680" y="415" as="sourcePoint"/>
                        <mxPoint x="590" y="415" as="targetPoint"/>
                    </mxGeometry>
                </mxCell>
                <mxCell id="nNRLO8aE0rF6P_CMcCFR-35" value="Service" style="text;html=1;strokeColor=none;fillColor=none;align=center;verticalAlign=middle;whiteSpace=wrap;rounded=0;" parent="nNRLO8aE0rF6P_CMcCFR-1" vertex="1">
                    <mxGeometry x="510" y="660" width="40" height="20" as="geometry"/>
                </mxCell>
                <mxCell id="nNRLO8aE0rF6P_CMcCFR-36" value="Cluster" style="text;html=1;strokeColor=none;fillColor=none;align=center;verticalAlign=middle;whiteSpace=wrap;rounded=0;" parent="nNRLO8aE0rF6P_CMcCFR-1" vertex="1">
                    <mxGeometry x="240" y="660" width="40" height="20" as="geometry"/>
                </mxCell>
                <mxCell id="nNRLO8aE0rF6P_CMcCFR-37" value="S" style="ellipse;whiteSpace=wrap;html=1;aspect=fixed;fillColor=#e1d5e7;strokeColor=#9673a6;" parent="nNRLO8aE0rF6P_CMcCFR-1" vertex="1">
                    <mxGeometry x="257.5" y="415" width="30" height="30" as="geometry"/>
                </mxCell>
                <mxCell id="nNRLO8aE0rF6P_CMcCFR-38" value="S" style="ellipse;whiteSpace=wrap;html=1;aspect=fixed;fillColor=#e1d5e7;strokeColor=#9673a6;" parent="nNRLO8aE0rF6P_CMcCFR-1" vertex="1">
                    <mxGeometry x="170" y="415" width="30" height="30" as="geometry"/>
                </mxCell>
                <mxCell id="nNRLO8aE0rF6P_CMcCFR-39" value="S" style="ellipse;whiteSpace=wrap;html=1;aspect=fixed;fillColor=#e1d5e7;strokeColor=#9673a6;" parent="nNRLO8aE0rF6P_CMcCFR-1" vertex="1">
                    <mxGeometry x="511" y="470" width="30" height="30" as="geometry"/>
                </mxCell>
                <mxCell id="nNRLO8aE0rF6P_CMcCFR-57" value="" style="rounded=1;whiteSpace=wrap;html=1;" parent="nNRLO8aE0rF6P_CMcCFR-1" vertex="1">
                    <mxGeometry x="125" y="470" width="80" height="90" as="geometry"/>
                </mxCell>
                <mxCell id="nNRLO8aE0rF6P_CMcCFR-58" value="" style="fontColor=#0066CC;verticalAlign=top;verticalLabelPosition=bottom;labelPosition=center;align=center;html=1;outlineConnect=0;fillColor=#CCCCCC;strokeColor=#6881B3;gradientColor=none;gradientDirection=north;strokeWidth=2;shape=mxgraph.networks.desktop_pc;" parent="nNRLO8aE0rF6P_CMcCFR-1" vertex="1">
                    <mxGeometry x="135" y="490" width="30" height="60" as="geometry"/>
                </mxCell>
                <mxCell id="nNRLO8aE0rF6P_CMcCFR-59" value="Pod" style="text;html=1;strokeColor=none;fillColor=none;align=center;verticalAlign=middle;whiteSpace=wrap;rounded=0;" parent="nNRLO8aE0rF6P_CMcCFR-1" vertex="1">
                    <mxGeometry x="165" y="505" width="40" height="20" as="geometry"/>
                </mxCell>
                <mxCell id="nNRLO8aE0rF6P_CMcCFR-60" value="S" style="ellipse;whiteSpace=wrap;html=1;aspect=fixed;fillColor=#e1d5e7;strokeColor=#9673a6;" parent="nNRLO8aE0rF6P_CMcCFR-1" vertex="1">
                    <mxGeometry x="170" y="525" width="30" height="30" as="geometry"/>
                </mxCell>
                <mxCell id="nNRLO8aE0rF6P_CMcCFR-61" value="" style="rounded=1;whiteSpace=wrap;html=1;" parent="nNRLO8aE0rF6P_CMcCFR-1" vertex="1">
                    <mxGeometry x="210" y="470" width="80" height="90" as="geometry"/>
                </mxCell>
                <mxCell id="nNRLO8aE0rF6P_CMcCFR-62" value="" style="fontColor=#0066CC;verticalAlign=top;verticalLabelPosition=bottom;labelPosition=center;align=center;html=1;outlineConnect=0;fillColor=#CCCCCC;strokeColor=#6881B3;gradientColor=none;gradientDirection=north;strokeWidth=2;shape=mxgraph.networks.desktop_pc;" parent="nNRLO8aE0rF6P_CMcCFR-1" vertex="1">
                    <mxGeometry x="220" y="490" width="30" height="60" as="geometry"/>
                </mxCell>
                <mxCell id="nNRLO8aE0rF6P_CMcCFR-63" value="Pod" style="text;html=1;strokeColor=none;fillColor=none;align=center;verticalAlign=middle;whiteSpace=wrap;rounded=0;" parent="nNRLO8aE0rF6P_CMcCFR-1" vertex="1">
                    <mxGeometry x="250" y="505" width="40" height="20" as="geometry"/>
                </mxCell>
                <mxCell id="nNRLO8aE0rF6P_CMcCFR-64" value="S" style="ellipse;whiteSpace=wrap;html=1;aspect=fixed;fillColor=#e1d5e7;strokeColor=#9673a6;" parent="nNRLO8aE0rF6P_CMcCFR-1" vertex="1">
                    <mxGeometry x="255" y="525" width="30" height="30" as="geometry"/>
                </mxCell>
            </root>
        </mxGraphModel>
    </diagram>
    <diagram id="dlCUd5oxk0VKm0_939L2" name="Page-6">
        <mxGraphModel dx="891" dy="382" grid="1" gridSize="10" guides="1" tooltips="1" connect="1" arrows="1" fold="1" page="1" pageScale="1" pageWidth="827" pageHeight="1169" math="0" shadow="0">
            <root>
                <mxCell id="mdkd3krMXYeZpnKmmguX-0"/>
                <mxCell id="mdkd3krMXYeZpnKmmguX-1" parent="mdkd3krMXYeZpnKmmguX-0"/>
                <mxCell id="mdkd3krMXYeZpnKmmguX-2" value="" style="rounded=1;whiteSpace=wrap;html=1;" parent="mdkd3krMXYeZpnKmmguX-1" vertex="1">
                    <mxGeometry x="80" y="320" width="370" height="330" as="geometry"/>
                </mxCell>
                <mxCell id="mdkd3krMXYeZpnKmmguX-3" value="" style="rounded=1;whiteSpace=wrap;html=1;" parent="mdkd3krMXYeZpnKmmguX-1" vertex="1">
                    <mxGeometry x="125" y="360" width="80" height="90" as="geometry"/>
                </mxCell>
                <mxCell id="mdkd3krMXYeZpnKmmguX-4" value="&lt;h1&gt;Understanding Services II&lt;/h1&gt;" style="text;html=1;strokeColor=none;fillColor=none;spacing=5;spacingTop=-20;whiteSpace=wrap;overflow=hidden;rounded=0;" parent="mdkd3krMXYeZpnKmmguX-1" vertex="1">
                    <mxGeometry x="130" y="40" width="530" height="50" as="geometry"/>
                </mxCell>
                <mxCell id="mdkd3krMXYeZpnKmmguX-5" value="" style="fontColor=#0066CC;verticalAlign=top;verticalLabelPosition=bottom;labelPosition=center;align=center;html=1;outlineConnect=0;fillColor=#CCCCCC;strokeColor=#6881B3;gradientColor=none;gradientDirection=north;strokeWidth=2;shape=mxgraph.networks.desktop_pc;" parent="mdkd3krMXYeZpnKmmguX-1" vertex="1">
                    <mxGeometry x="135" y="380" width="30" height="60" as="geometry"/>
                </mxCell>
                <mxCell id="mdkd3krMXYeZpnKmmguX-6" value="Pod" style="text;html=1;strokeColor=none;fillColor=none;align=center;verticalAlign=middle;whiteSpace=wrap;rounded=0;" parent="mdkd3krMXYeZpnKmmguX-1" vertex="1">
                    <mxGeometry x="165" y="395" width="40" height="20" as="geometry"/>
                </mxCell>
                <mxCell id="mdkd3krMXYeZpnKmmguX-7" value="" style="rounded=1;whiteSpace=wrap;html=1;" parent="mdkd3krMXYeZpnKmmguX-1" vertex="1">
                    <mxGeometry x="210" y="360" width="80" height="90" as="geometry"/>
                </mxCell>
                <mxCell id="mdkd3krMXYeZpnKmmguX-8" value="" style="fontColor=#0066CC;verticalAlign=top;verticalLabelPosition=bottom;labelPosition=center;align=center;html=1;outlineConnect=0;fillColor=#CCCCCC;strokeColor=#6881B3;gradientColor=none;gradientDirection=north;strokeWidth=2;shape=mxgraph.networks.desktop_pc;" parent="mdkd3krMXYeZpnKmmguX-1" vertex="1">
                    <mxGeometry x="220" y="380" width="30" height="60" as="geometry"/>
                </mxCell>
                <mxCell id="mdkd3krMXYeZpnKmmguX-9" value="Pod" style="text;html=1;strokeColor=none;fillColor=none;align=center;verticalAlign=middle;whiteSpace=wrap;rounded=0;" parent="mdkd3krMXYeZpnKmmguX-1" vertex="1">
                    <mxGeometry x="255" y="395" width="35" height="20" as="geometry"/>
                </mxCell>
                <mxCell id="mdkd3krMXYeZpnKmmguX-10" value="" style="rounded=1;whiteSpace=wrap;html=1;" parent="mdkd3krMXYeZpnKmmguX-1" vertex="1">
                    <mxGeometry x="480" y="320" width="100" height="330" as="geometry"/>
                </mxCell>
                <mxCell id="mdkd3krMXYeZpnKmmguX-11" value="" style="rounded=1;whiteSpace=wrap;html=1;" parent="mdkd3krMXYeZpnKmmguX-1" vertex="1">
                    <mxGeometry x="491" y="380" width="80" height="80" as="geometry"/>
                </mxCell>
                <mxCell id="mdkd3krMXYeZpnKmmguX-12" value="" style="outlineConnect=0;dashed=0;verticalLabelPosition=bottom;verticalAlign=top;align=center;html=1;shape=mxgraph.aws3.classic_load_balancer;fillColor=#F58534;gradientColor=none;" parent="mdkd3krMXYeZpnKmmguX-1" vertex="1">
                    <mxGeometry x="516.5" y="390" width="29" height="32" as="geometry"/>
                </mxCell>
                <mxCell id="mdkd3krMXYeZpnKmmguX-13" value="HTTP" style="text;html=1;strokeColor=none;fillColor=none;align=center;verticalAlign=middle;whiteSpace=wrap;rounded=0;" parent="mdkd3krMXYeZpnKmmguX-1" vertex="1">
                    <mxGeometry x="511" y="430" width="40" height="20" as="geometry"/>
                </mxCell>
                <mxCell id="mdkd3krMXYeZpnKmmguX-14" value="" style="outlineConnect=0;dashed=0;verticalLabelPosition=bottom;verticalAlign=top;align=center;html=1;shape=mxgraph.aws3.internet_gateway;fillColor=#F58534;gradientColor=none;" parent="mdkd3krMXYeZpnKmmguX-1" vertex="1">
                    <mxGeometry x="690" y="384" width="69" height="72" as="geometry"/>
                </mxCell>
                <mxCell id="mdkd3krMXYeZpnKmmguX-15" value="" style="shape=flexArrow;endArrow=classic;html=1;" parent="mdkd3krMXYeZpnKmmguX-1" edge="1">
                    <mxGeometry width="50" height="50" relative="1" as="geometry">
                        <mxPoint x="680" y="415" as="sourcePoint"/>
                        <mxPoint x="590" y="415" as="targetPoint"/>
                    </mxGeometry>
                </mxCell>
                <mxCell id="mdkd3krMXYeZpnKmmguX-16" value="Service" style="text;html=1;strokeColor=none;fillColor=none;align=center;verticalAlign=middle;whiteSpace=wrap;rounded=0;" parent="mdkd3krMXYeZpnKmmguX-1" vertex="1">
                    <mxGeometry x="510" y="660" width="40" height="20" as="geometry"/>
                </mxCell>
                <mxCell id="mdkd3krMXYeZpnKmmguX-17" value="Cluster" style="text;html=1;strokeColor=none;fillColor=none;align=center;verticalAlign=middle;whiteSpace=wrap;rounded=0;" parent="mdkd3krMXYeZpnKmmguX-1" vertex="1">
                    <mxGeometry x="240" y="660" width="40" height="20" as="geometry"/>
                </mxCell>
                <mxCell id="mdkd3krMXYeZpnKmmguX-18" value="S" style="ellipse;whiteSpace=wrap;html=1;aspect=fixed;fillColor=#e1d5e7;strokeColor=#9673a6;" parent="mdkd3krMXYeZpnKmmguX-1" vertex="1">
                    <mxGeometry x="257.5" y="415" width="30" height="30" as="geometry"/>
                </mxCell>
                <mxCell id="mdkd3krMXYeZpnKmmguX-19" value="S" style="ellipse;whiteSpace=wrap;html=1;aspect=fixed;fillColor=#e1d5e7;strokeColor=#9673a6;" parent="mdkd3krMXYeZpnKmmguX-1" vertex="1">
                    <mxGeometry x="170" y="415" width="30" height="30" as="geometry"/>
                </mxCell>
                <mxCell id="mdkd3krMXYeZpnKmmguX-20" value="S" style="ellipse;whiteSpace=wrap;html=1;aspect=fixed;fillColor=#e1d5e7;strokeColor=#9673a6;" parent="mdkd3krMXYeZpnKmmguX-1" vertex="1">
                    <mxGeometry x="511" y="470" width="30" height="30" as="geometry"/>
                </mxCell>
                <mxCell id="mdkd3krMXYeZpnKmmguX-21" value="" style="rounded=1;whiteSpace=wrap;html=1;" parent="mdkd3krMXYeZpnKmmguX-1" vertex="1">
                    <mxGeometry x="125" y="470" width="80" height="90" as="geometry"/>
                </mxCell>
                <mxCell id="mdkd3krMXYeZpnKmmguX-22" value="" style="fontColor=#0066CC;verticalAlign=top;verticalLabelPosition=bottom;labelPosition=center;align=center;html=1;outlineConnect=0;fillColor=#CCCCCC;strokeColor=#6881B3;gradientColor=none;gradientDirection=north;strokeWidth=2;shape=mxgraph.networks.desktop_pc;" parent="mdkd3krMXYeZpnKmmguX-1" vertex="1">
                    <mxGeometry x="135" y="490" width="30" height="60" as="geometry"/>
                </mxCell>
                <mxCell id="mdkd3krMXYeZpnKmmguX-23" value="Pod" style="text;html=1;strokeColor=none;fillColor=none;align=center;verticalAlign=middle;whiteSpace=wrap;rounded=0;" parent="mdkd3krMXYeZpnKmmguX-1" vertex="1">
                    <mxGeometry x="165" y="505" width="40" height="20" as="geometry"/>
                </mxCell>
                <mxCell id="mdkd3krMXYeZpnKmmguX-24" value="S" style="ellipse;whiteSpace=wrap;html=1;aspect=fixed;fillColor=#e1d5e7;strokeColor=#9673a6;" parent="mdkd3krMXYeZpnKmmguX-1" vertex="1">
                    <mxGeometry x="170" y="525" width="30" height="30" as="geometry"/>
                </mxCell>
                <mxCell id="mdkd3krMXYeZpnKmmguX-25" value="" style="rounded=1;whiteSpace=wrap;html=1;" parent="mdkd3krMXYeZpnKmmguX-1" vertex="1">
                    <mxGeometry x="210" y="470" width="80" height="90" as="geometry"/>
                </mxCell>
                <mxCell id="mdkd3krMXYeZpnKmmguX-26" value="" style="fontColor=#0066CC;verticalAlign=top;verticalLabelPosition=bottom;labelPosition=center;align=center;html=1;outlineConnect=0;fillColor=#CCCCCC;strokeColor=#6881B3;gradientColor=none;gradientDirection=north;strokeWidth=2;shape=mxgraph.networks.desktop_pc;" parent="mdkd3krMXYeZpnKmmguX-1" vertex="1">
                    <mxGeometry x="220" y="490" width="30" height="60" as="geometry"/>
                </mxCell>
                <mxCell id="mdkd3krMXYeZpnKmmguX-27" value="Pod" style="text;html=1;strokeColor=none;fillColor=none;align=center;verticalAlign=middle;whiteSpace=wrap;rounded=0;" parent="mdkd3krMXYeZpnKmmguX-1" vertex="1">
                    <mxGeometry x="250" y="505" width="40" height="20" as="geometry"/>
                </mxCell>
            </root>
        </mxGraphModel>
    </diagram>
    <diagram id="5H-hD4i_yZmcE1ajGovQ" name="Page-7">
        <mxGraphModel dx="649" dy="495" grid="1" gridSize="10" guides="1" tooltips="1" connect="1" arrows="1" fold="1" page="1" pageScale="1" pageWidth="827" pageHeight="1169" math="0" shadow="0">
            <root>
                <mxCell id="4coWIp_NAew35HJ0zg4M-0"/>
                <mxCell id="4coWIp_NAew35HJ0zg4M-1" parent="4coWIp_NAew35HJ0zg4M-0"/>
                <mxCell id="4coWIp_NAew35HJ0zg4M-2" value="" style="rounded=1;whiteSpace=wrap;html=1;" parent="4coWIp_NAew35HJ0zg4M-1" vertex="1">
                    <mxGeometry x="40" y="120" width="440" height="100" as="geometry"/>
                </mxCell>
                <mxCell id="4coWIp_NAew35HJ0zg4M-3" value="" style="rounded=1;whiteSpace=wrap;html=1;" parent="4coWIp_NAew35HJ0zg4M-1" vertex="1">
                    <mxGeometry x="70" y="125" width="80" height="90" as="geometry"/>
                </mxCell>
                <mxCell id="4coWIp_NAew35HJ0zg4M-4" value="&lt;font style=&quot;font-size: 16px&quot;&gt;&lt;b&gt;ClusterIP I&lt;/b&gt;&lt;/font&gt;" style="text;html=1;strokeColor=none;fillColor=none;align=center;verticalAlign=middle;whiteSpace=wrap;rounded=0;" parent="4coWIp_NAew35HJ0zg4M-1" vertex="1">
                    <mxGeometry x="230" y="40" width="350" height="20" as="geometry"/>
                </mxCell>
                <mxCell id="4coWIp_NAew35HJ0zg4M-5" value="" style="fontColor=#0066CC;verticalAlign=top;verticalLabelPosition=bottom;labelPosition=center;align=center;html=1;outlineConnect=0;fillColor=#CCCCCC;strokeColor=#6881B3;gradientColor=none;gradientDirection=north;strokeWidth=2;shape=mxgraph.networks.desktop_pc;" parent="4coWIp_NAew35HJ0zg4M-1" vertex="1">
                    <mxGeometry x="79" y="140" width="30" height="60" as="geometry"/>
                </mxCell>
                <mxCell id="4coWIp_NAew35HJ0zg4M-6" style="edgeStyle=orthogonalEdgeStyle;rounded=0;orthogonalLoop=1;jettySize=auto;html=1;exitX=0.5;exitY=1;exitDx=0;exitDy=0;" parent="4coWIp_NAew35HJ0zg4M-1" source="4coWIp_NAew35HJ0zg4M-3" target="4coWIp_NAew35HJ0zg4M-3" edge="1">
                    <mxGeometry relative="1" as="geometry"/>
                </mxCell>
                <mxCell id="4coWIp_NAew35HJ0zg4M-7" value="POD" style="text;html=1;strokeColor=none;fillColor=none;align=center;verticalAlign=middle;whiteSpace=wrap;rounded=0;" parent="4coWIp_NAew35HJ0zg4M-1" vertex="1">
                    <mxGeometry x="109" y="160" width="40" height="20" as="geometry"/>
                </mxCell>
                <mxCell id="4coWIp_NAew35HJ0zg4M-8" value="" style="rounded=1;whiteSpace=wrap;html=1;" parent="4coWIp_NAew35HJ0zg4M-1" vertex="1">
                    <mxGeometry x="170" y="125" width="80" height="90" as="geometry"/>
                </mxCell>
                <mxCell id="4coWIp_NAew35HJ0zg4M-9" value="" style="fontColor=#0066CC;verticalAlign=top;verticalLabelPosition=bottom;labelPosition=center;align=center;html=1;outlineConnect=0;fillColor=#CCCCCC;strokeColor=#6881B3;gradientColor=none;gradientDirection=north;strokeWidth=2;shape=mxgraph.networks.desktop_pc;" parent="4coWIp_NAew35HJ0zg4M-1" vertex="1">
                    <mxGeometry x="179" y="140" width="30" height="60" as="geometry"/>
                </mxCell>
                <mxCell id="4coWIp_NAew35HJ0zg4M-10" value="POD" style="text;html=1;strokeColor=none;fillColor=none;align=center;verticalAlign=middle;whiteSpace=wrap;rounded=0;" parent="4coWIp_NAew35HJ0zg4M-1" vertex="1">
                    <mxGeometry x="209" y="160" width="40" height="20" as="geometry"/>
                </mxCell>
                <mxCell id="4coWIp_NAew35HJ0zg4M-11" value="kube-proxy" style="rounded=0;whiteSpace=wrap;html=1;rotation=90;fillColor=#f8cecc;strokeColor=#b85450;" parent="4coWIp_NAew35HJ0zg4M-1" vertex="1">
                    <mxGeometry x="400" y="150" width="90" height="40" as="geometry"/>
                </mxCell>
                <mxCell id="4coWIp_NAew35HJ0zg4M-13" value="" style="rounded=1;whiteSpace=wrap;html=1;" parent="4coWIp_NAew35HJ0zg4M-1" vertex="1">
                    <mxGeometry x="40" y="260" width="440" height="100" as="geometry"/>
                </mxCell>
                <mxCell id="4coWIp_NAew35HJ0zg4M-20" value="kube-proxy" style="rounded=0;whiteSpace=wrap;html=1;rotation=90;fillColor=#f8cecc;strokeColor=#b85450;" parent="4coWIp_NAew35HJ0zg4M-1" vertex="1">
                    <mxGeometry x="400" y="290" width="90" height="40" as="geometry"/>
                </mxCell>
                <mxCell id="4coWIp_NAew35HJ0zg4M-21" value=".1" style="ellipse;whiteSpace=wrap;html=1;aspect=fixed;fillColor=#dae8fc;strokeColor=#6c8ebf;" parent="4coWIp_NAew35HJ0zg4M-1" vertex="1">
                    <mxGeometry x="117" y="180" width="24" height="24" as="geometry"/>
                </mxCell>
                <mxCell id="4coWIp_NAew35HJ0zg4M-22" value=".9" style="ellipse;whiteSpace=wrap;html=1;aspect=fixed;fillColor=#dae8fc;strokeColor=#6c8ebf;" parent="4coWIp_NAew35HJ0zg4M-1" vertex="1">
                    <mxGeometry x="217" y="180" width="24" height="24" as="geometry"/>
                </mxCell>
                <mxCell id="4coWIp_NAew35HJ0zg4M-25" value="" style="rounded=1;whiteSpace=wrap;html=1;" parent="4coWIp_NAew35HJ0zg4M-1" vertex="1">
                    <mxGeometry x="600" y="160" width="120" height="160" as="geometry"/>
                </mxCell>
                <mxCell id="4coWIp_NAew35HJ0zg4M-26" value="Service" style="text;html=1;strokeColor=none;fillColor=none;align=center;verticalAlign=middle;whiteSpace=wrap;rounded=0;" parent="4coWIp_NAew35HJ0zg4M-1" vertex="1">
                    <mxGeometry x="640" y="330" width="40" height="20" as="geometry"/>
                </mxCell>
                <mxCell id="4coWIp_NAew35HJ0zg4M-27" value="" style="rounded=1;whiteSpace=wrap;html=1;" parent="4coWIp_NAew35HJ0zg4M-1" vertex="1">
                    <mxGeometry x="620" y="200" width="80" height="80" as="geometry"/>
                </mxCell>
                <mxCell id="4coWIp_NAew35HJ0zg4M-28" value="" style="outlineConnect=0;dashed=0;verticalLabelPosition=bottom;verticalAlign=top;align=center;html=1;shape=mxgraph.aws3.classic_load_balancer;fillColor=#F58534;gradientColor=none;" parent="4coWIp_NAew35HJ0zg4M-1" vertex="1">
                    <mxGeometry x="645.5" y="210" width="29" height="32" as="geometry"/>
                </mxCell>
                <mxCell id="4coWIp_NAew35HJ0zg4M-29" value="HTTP" style="text;html=1;strokeColor=none;fillColor=none;align=center;verticalAlign=middle;whiteSpace=wrap;rounded=0;" parent="4coWIp_NAew35HJ0zg4M-1" vertex="1">
                    <mxGeometry x="640" y="250" width="40" height="20" as="geometry"/>
                </mxCell>
                <mxCell id="4coWIp_NAew35HJ0zg4M-30" value="" style="ellipse;whiteSpace=wrap;html=1;aspect=fixed;fillColor=#d5e8d4;strokeColor=#82b366;" parent="4coWIp_NAew35HJ0zg4M-1" vertex="1">
                    <mxGeometry x="690" y="270" width="24" height="24" as="geometry"/>
                </mxCell>
                <mxCell id="4coWIp_NAew35HJ0zg4M-34" value="10.1.22.10:80" style="rounded=1;whiteSpace=wrap;html=1;fillColor=#d5e8d4;strokeColor=#82b366;" parent="4coWIp_NAew35HJ0zg4M-1" vertex="1">
                    <mxGeometry x="590" y="350" width="150" height="30" as="geometry"/>
                </mxCell>
                <mxCell id="4coWIp_NAew35HJ0zg4M-35" value="10.1.22.10:80" style="rounded=1;whiteSpace=wrap;html=1;fillColor=#d5e8d4;strokeColor=#82b366;" parent="4coWIp_NAew35HJ0zg4M-1" vertex="1">
                    <mxGeometry x="270" y="150" width="150" height="30" as="geometry"/>
                </mxCell>
                <mxCell id="4coWIp_NAew35HJ0zg4M-36" value="10.1.22.10:80" style="rounded=1;whiteSpace=wrap;html=1;fillColor=#d5e8d4;strokeColor=#82b366;" parent="4coWIp_NAew35HJ0zg4M-1" vertex="1">
                    <mxGeometry x="270" y="295" width="150" height="30" as="geometry"/>
                </mxCell>
                <mxCell id="4coWIp_NAew35HJ0zg4M-37" value="" style="rounded=1;whiteSpace=wrap;html=1;" parent="4coWIp_NAew35HJ0zg4M-1" vertex="1">
                    <mxGeometry x="40" y="480" width="440" height="100" as="geometry"/>
                </mxCell>
                <mxCell id="4coWIp_NAew35HJ0zg4M-38" value="" style="rounded=1;whiteSpace=wrap;html=1;" parent="4coWIp_NAew35HJ0zg4M-1" vertex="1">
                    <mxGeometry x="70" y="485" width="80" height="90" as="geometry"/>
                </mxCell>
                <mxCell id="4coWIp_NAew35HJ0zg4M-39" value="&lt;font style=&quot;font-size: 16px&quot;&gt;&lt;b&gt;ClusterIP II&lt;/b&gt;&lt;/font&gt;" style="text;html=1;strokeColor=none;fillColor=none;align=center;verticalAlign=middle;whiteSpace=wrap;rounded=0;" parent="4coWIp_NAew35HJ0zg4M-1" vertex="1">
                    <mxGeometry x="230" y="400" width="350" height="20" as="geometry"/>
                </mxCell>
                <mxCell id="4coWIp_NAew35HJ0zg4M-40" value="" style="fontColor=#0066CC;verticalAlign=top;verticalLabelPosition=bottom;labelPosition=center;align=center;html=1;outlineConnect=0;fillColor=#CCCCCC;strokeColor=#6881B3;gradientColor=none;gradientDirection=north;strokeWidth=2;shape=mxgraph.networks.desktop_pc;" parent="4coWIp_NAew35HJ0zg4M-1" vertex="1">
                    <mxGeometry x="79" y="500" width="30" height="60" as="geometry"/>
                </mxCell>
                <mxCell id="4coWIp_NAew35HJ0zg4M-41" style="edgeStyle=orthogonalEdgeStyle;rounded=0;orthogonalLoop=1;jettySize=auto;html=1;exitX=0.5;exitY=1;exitDx=0;exitDy=0;" parent="4coWIp_NAew35HJ0zg4M-1" source="4coWIp_NAew35HJ0zg4M-38" target="4coWIp_NAew35HJ0zg4M-38" edge="1">
                    <mxGeometry relative="1" as="geometry"/>
                </mxCell>
                <mxCell id="4coWIp_NAew35HJ0zg4M-42" value="POD" style="text;html=1;strokeColor=none;fillColor=none;align=center;verticalAlign=middle;whiteSpace=wrap;rounded=0;" parent="4coWIp_NAew35HJ0zg4M-1" vertex="1">
                    <mxGeometry x="109" y="520" width="40" height="20" as="geometry"/>
                </mxCell>
                <mxCell id="4coWIp_NAew35HJ0zg4M-43" value="" style="rounded=1;whiteSpace=wrap;html=1;" parent="4coWIp_NAew35HJ0zg4M-1" vertex="1">
                    <mxGeometry x="170" y="485" width="80" height="90" as="geometry"/>
                </mxCell>
                <mxCell id="4coWIp_NAew35HJ0zg4M-44" value="" style="fontColor=#0066CC;verticalAlign=top;verticalLabelPosition=bottom;labelPosition=center;align=center;html=1;outlineConnect=0;fillColor=#CCCCCC;strokeColor=#6881B3;gradientColor=none;gradientDirection=north;strokeWidth=2;shape=mxgraph.networks.desktop_pc;" parent="4coWIp_NAew35HJ0zg4M-1" vertex="1">
                    <mxGeometry x="179" y="500" width="30" height="60" as="geometry"/>
                </mxCell>
                <mxCell id="4coWIp_NAew35HJ0zg4M-45" value="POD" style="text;html=1;strokeColor=none;fillColor=none;align=center;verticalAlign=middle;whiteSpace=wrap;rounded=0;" parent="4coWIp_NAew35HJ0zg4M-1" vertex="1">
                    <mxGeometry x="209" y="520" width="40" height="20" as="geometry"/>
                </mxCell>
                <mxCell id="4coWIp_NAew35HJ0zg4M-46" value="kube-proxy" style="rounded=0;whiteSpace=wrap;html=1;rotation=90;fillColor=#f8cecc;strokeColor=#b85450;" parent="4coWIp_NAew35HJ0zg4M-1" vertex="1">
                    <mxGeometry x="400" y="510" width="90" height="40" as="geometry"/>
                </mxCell>
                <mxCell id="4coWIp_NAew35HJ0zg4M-47" value="" style="rounded=1;whiteSpace=wrap;html=1;" parent="4coWIp_NAew35HJ0zg4M-1" vertex="1">
                    <mxGeometry x="40" y="620" width="440" height="100" as="geometry"/>
                </mxCell>
                <mxCell id="4coWIp_NAew35HJ0zg4M-48" value="kube-proxy" style="rounded=0;whiteSpace=wrap;html=1;rotation=90;fillColor=#f8cecc;strokeColor=#b85450;" parent="4coWIp_NAew35HJ0zg4M-1" vertex="1">
                    <mxGeometry x="400" y="650" width="90" height="40" as="geometry"/>
                </mxCell>
                <mxCell id="4coWIp_NAew35HJ0zg4M-49" value=".1" style="ellipse;whiteSpace=wrap;html=1;aspect=fixed;fillColor=#dae8fc;strokeColor=#6c8ebf;" parent="4coWIp_NAew35HJ0zg4M-1" vertex="1">
                    <mxGeometry x="117" y="540" width="24" height="24" as="geometry"/>
                </mxCell>
                <mxCell id="4coWIp_NAew35HJ0zg4M-50" value=".9" style="ellipse;whiteSpace=wrap;html=1;aspect=fixed;fillColor=#dae8fc;strokeColor=#6c8ebf;" parent="4coWIp_NAew35HJ0zg4M-1" vertex="1">
                    <mxGeometry x="217" y="540" width="24" height="24" as="geometry"/>
                </mxCell>
                <mxCell id="4coWIp_NAew35HJ0zg4M-51" value="" style="rounded=1;whiteSpace=wrap;html=1;" parent="4coWIp_NAew35HJ0zg4M-1" vertex="1">
                    <mxGeometry x="600" y="520" width="120" height="160" as="geometry"/>
                </mxCell>
                <mxCell id="4coWIp_NAew35HJ0zg4M-52" value="Service" style="text;html=1;strokeColor=none;fillColor=none;align=center;verticalAlign=middle;whiteSpace=wrap;rounded=0;" parent="4coWIp_NAew35HJ0zg4M-1" vertex="1">
                    <mxGeometry x="640" y="690" width="40" height="20" as="geometry"/>
                </mxCell>
                <mxCell id="4coWIp_NAew35HJ0zg4M-53" value="" style="rounded=1;whiteSpace=wrap;html=1;" parent="4coWIp_NAew35HJ0zg4M-1" vertex="1">
                    <mxGeometry x="620" y="560" width="80" height="80" as="geometry"/>
                </mxCell>
                <mxCell id="4coWIp_NAew35HJ0zg4M-54" value="" style="outlineConnect=0;dashed=0;verticalLabelPosition=bottom;verticalAlign=top;align=center;html=1;shape=mxgraph.aws3.classic_load_balancer;fillColor=#F58534;gradientColor=none;" parent="4coWIp_NAew35HJ0zg4M-1" vertex="1">
                    <mxGeometry x="645.5" y="570" width="29" height="32" as="geometry"/>
                </mxCell>
                <mxCell id="4coWIp_NAew35HJ0zg4M-55" value="HTTP" style="text;html=1;strokeColor=none;fillColor=none;align=center;verticalAlign=middle;whiteSpace=wrap;rounded=0;" parent="4coWIp_NAew35HJ0zg4M-1" vertex="1">
                    <mxGeometry x="640" y="610" width="40" height="20" as="geometry"/>
                </mxCell>
                <mxCell id="4coWIp_NAew35HJ0zg4M-56" value="" style="ellipse;whiteSpace=wrap;html=1;aspect=fixed;fillColor=#d5e8d4;strokeColor=#82b366;" parent="4coWIp_NAew35HJ0zg4M-1" vertex="1">
                    <mxGeometry x="690" y="630" width="24" height="24" as="geometry"/>
                </mxCell>
                <mxCell id="4coWIp_NAew35HJ0zg4M-57" value="10.1.22.10:80" style="rounded=1;whiteSpace=wrap;html=1;fillColor=#d5e8d4;strokeColor=#82b366;" parent="4coWIp_NAew35HJ0zg4M-1" vertex="1">
                    <mxGeometry x="590" y="710" width="150" height="30" as="geometry"/>
                </mxCell>
                <mxCell id="4coWIp_NAew35HJ0zg4M-58" value="10.1.22.10:80" style="rounded=1;whiteSpace=wrap;html=1;fillColor=#d5e8d4;strokeColor=#82b366;" parent="4coWIp_NAew35HJ0zg4M-1" vertex="1">
                    <mxGeometry x="270" y="510" width="150" height="30" as="geometry"/>
                </mxCell>
                <mxCell id="4coWIp_NAew35HJ0zg4M-59" value="10.1.22.10:80" style="rounded=1;whiteSpace=wrap;html=1;fillColor=#d5e8d4;strokeColor=#82b366;" parent="4coWIp_NAew35HJ0zg4M-1" vertex="1">
                    <mxGeometry x="270" y="655" width="150" height="30" as="geometry"/>
                </mxCell>
                <mxCell id="4coWIp_NAew35HJ0zg4M-60" value="" style="rounded=1;whiteSpace=wrap;html=1;" parent="4coWIp_NAew35HJ0zg4M-1" vertex="1">
                    <mxGeometry x="69" y="625" width="80" height="90" as="geometry"/>
                </mxCell>
                <mxCell id="4coWIp_NAew35HJ0zg4M-61" value="" style="fontColor=#0066CC;verticalAlign=top;verticalLabelPosition=bottom;labelPosition=center;align=center;html=1;outlineConnect=0;fillColor=#CCCCCC;strokeColor=#6881B3;gradientColor=none;gradientDirection=north;strokeWidth=2;shape=mxgraph.networks.desktop_pc;" parent="4coWIp_NAew35HJ0zg4M-1" vertex="1">
                    <mxGeometry x="78" y="640" width="30" height="60" as="geometry"/>
                </mxCell>
                <mxCell id="4coWIp_NAew35HJ0zg4M-62" value="POD" style="text;html=1;strokeColor=none;fillColor=none;align=center;verticalAlign=middle;whiteSpace=wrap;rounded=0;" parent="4coWIp_NAew35HJ0zg4M-1" vertex="1">
                    <mxGeometry x="108" y="660" width="40" height="20" as="geometry"/>
                </mxCell>
                <mxCell id="4coWIp_NAew35HJ0zg4M-63" value="" style="shape=flexArrow;endArrow=classic;html=1;fillColor=#d5e8d4;strokeColor=#82b366;" parent="4coWIp_NAew35HJ0zg4M-1" edge="1">
                    <mxGeometry width="50" height="50" relative="1" as="geometry">
                        <mxPoint x="170" y="669.5" as="sourcePoint"/>
                        <mxPoint x="250" y="669.5" as="targetPoint"/>
                    </mxGeometry>
                </mxCell>
                <mxCell id="4coWIp_NAew35HJ0zg4M-69" value="" style="shape=flexArrow;endArrow=classic;html=1;fillColor=#dae8fc;strokeColor=#6c8ebf;" parent="4coWIp_NAew35HJ0zg4M-1" edge="1">
                    <mxGeometry width="50" height="50" relative="1" as="geometry">
                        <mxPoint x="209.5" y="645" as="sourcePoint"/>
                        <mxPoint x="209.5" y="575" as="targetPoint"/>
                    </mxGeometry>
                </mxCell>
                <mxCell id="4coWIp_NAew35HJ0zg4M-74" value="1." style="text;html=1;strokeColor=none;fillColor=none;align=center;verticalAlign=middle;whiteSpace=wrap;rounded=0;" parent="4coWIp_NAew35HJ0zg4M-1" vertex="1">
                    <mxGeometry x="190" y="680" width="40" height="20" as="geometry"/>
                </mxCell>
                <mxCell id="4coWIp_NAew35HJ0zg4M-75" value="2." style="text;html=1;strokeColor=none;fillColor=none;align=center;verticalAlign=middle;whiteSpace=wrap;rounded=0;" parent="4coWIp_NAew35HJ0zg4M-1" vertex="1">
                    <mxGeometry x="217" y="625" width="40" height="20" as="geometry"/>
                </mxCell>
            </root>
        </mxGraphModel>
    </diagram>
    <diagram id="s-8y_quDFEPSq2VwrUYt" name="Page-8">
        <mxGraphModel dx="730" dy="495" grid="1" gridSize="10" guides="1" tooltips="1" connect="1" arrows="1" fold="1" page="1" pageScale="1" pageWidth="827" pageHeight="1169" math="0" shadow="0">
            <root>
                <mxCell id="kp9dLLuNeDpNEy_56DQ8-0"/>
                <mxCell id="kp9dLLuNeDpNEy_56DQ8-1" parent="kp9dLLuNeDpNEy_56DQ8-0"/>
                <mxCell id="kp9dLLuNeDpNEy_56DQ8-2" value="" style="rounded=1;whiteSpace=wrap;html=1;" parent="kp9dLLuNeDpNEy_56DQ8-1" vertex="1">
                    <mxGeometry x="40" y="120" width="440" height="100" as="geometry"/>
                </mxCell>
                <mxCell id="kp9dLLuNeDpNEy_56DQ8-3" value="" style="rounded=1;whiteSpace=wrap;html=1;" parent="kp9dLLuNeDpNEy_56DQ8-1" vertex="1">
                    <mxGeometry x="70" y="125" width="80" height="90" as="geometry"/>
                </mxCell>
                <mxCell id="kp9dLLuNeDpNEy_56DQ8-4" value="&lt;font style=&quot;font-size: 16px&quot;&gt;&lt;b&gt;NodePort I&lt;/b&gt;&lt;/font&gt;" style="text;html=1;strokeColor=none;fillColor=none;align=center;verticalAlign=middle;whiteSpace=wrap;rounded=0;" parent="kp9dLLuNeDpNEy_56DQ8-1" vertex="1">
                    <mxGeometry x="230" y="40" width="350" height="20" as="geometry"/>
                </mxCell>
                <mxCell id="kp9dLLuNeDpNEy_56DQ8-5" value="" style="fontColor=#0066CC;verticalAlign=top;verticalLabelPosition=bottom;labelPosition=center;align=center;html=1;outlineConnect=0;fillColor=#CCCCCC;strokeColor=#6881B3;gradientColor=none;gradientDirection=north;strokeWidth=2;shape=mxgraph.networks.desktop_pc;" parent="kp9dLLuNeDpNEy_56DQ8-1" vertex="1">
                    <mxGeometry x="79" y="140" width="30" height="60" as="geometry"/>
                </mxCell>
                <mxCell id="kp9dLLuNeDpNEy_56DQ8-6" style="edgeStyle=orthogonalEdgeStyle;rounded=0;orthogonalLoop=1;jettySize=auto;html=1;exitX=0.5;exitY=1;exitDx=0;exitDy=0;" parent="kp9dLLuNeDpNEy_56DQ8-1" source="kp9dLLuNeDpNEy_56DQ8-3" target="kp9dLLuNeDpNEy_56DQ8-3" edge="1">
                    <mxGeometry relative="1" as="geometry"/>
                </mxCell>
                <mxCell id="kp9dLLuNeDpNEy_56DQ8-7" value="POD" style="text;html=1;strokeColor=none;fillColor=none;align=center;verticalAlign=middle;whiteSpace=wrap;rounded=0;" parent="kp9dLLuNeDpNEy_56DQ8-1" vertex="1">
                    <mxGeometry x="109" y="160" width="40" height="20" as="geometry"/>
                </mxCell>
                <mxCell id="kp9dLLuNeDpNEy_56DQ8-8" value="" style="rounded=1;whiteSpace=wrap;html=1;" parent="kp9dLLuNeDpNEy_56DQ8-1" vertex="1">
                    <mxGeometry x="170" y="125" width="80" height="90" as="geometry"/>
                </mxCell>
                <mxCell id="kp9dLLuNeDpNEy_56DQ8-9" value="" style="fontColor=#0066CC;verticalAlign=top;verticalLabelPosition=bottom;labelPosition=center;align=center;html=1;outlineConnect=0;fillColor=#CCCCCC;strokeColor=#6881B3;gradientColor=none;gradientDirection=north;strokeWidth=2;shape=mxgraph.networks.desktop_pc;" parent="kp9dLLuNeDpNEy_56DQ8-1" vertex="1">
                    <mxGeometry x="179" y="140" width="30" height="60" as="geometry"/>
                </mxCell>
                <mxCell id="kp9dLLuNeDpNEy_56DQ8-10" value="POD" style="text;html=1;strokeColor=none;fillColor=none;align=center;verticalAlign=middle;whiteSpace=wrap;rounded=0;" parent="kp9dLLuNeDpNEy_56DQ8-1" vertex="1">
                    <mxGeometry x="209" y="160" width="40" height="20" as="geometry"/>
                </mxCell>
                <mxCell id="kp9dLLuNeDpNEy_56DQ8-11" value="kube-proxy" style="rounded=0;whiteSpace=wrap;html=1;rotation=90;fillColor=#f8cecc;strokeColor=#b85450;" parent="kp9dLLuNeDpNEy_56DQ8-1" vertex="1">
                    <mxGeometry x="400" y="150" width="90" height="40" as="geometry"/>
                </mxCell>
                <mxCell id="kp9dLLuNeDpNEy_56DQ8-12" value="" style="rounded=1;whiteSpace=wrap;html=1;" parent="kp9dLLuNeDpNEy_56DQ8-1" vertex="1">
                    <mxGeometry x="40" y="260" width="440" height="100" as="geometry"/>
                </mxCell>
                <mxCell id="kp9dLLuNeDpNEy_56DQ8-13" value="kube-proxy" style="rounded=0;whiteSpace=wrap;html=1;rotation=90;fillColor=#f8cecc;strokeColor=#b85450;" parent="kp9dLLuNeDpNEy_56DQ8-1" vertex="1">
                    <mxGeometry x="400" y="290" width="90" height="40" as="geometry"/>
                </mxCell>
                <mxCell id="kp9dLLuNeDpNEy_56DQ8-14" value=".1" style="ellipse;whiteSpace=wrap;html=1;aspect=fixed;fillColor=#dae8fc;strokeColor=#6c8ebf;" parent="kp9dLLuNeDpNEy_56DQ8-1" vertex="1">
                    <mxGeometry x="117" y="180" width="24" height="24" as="geometry"/>
                </mxCell>
                <mxCell id="kp9dLLuNeDpNEy_56DQ8-15" value=".9" style="ellipse;whiteSpace=wrap;html=1;aspect=fixed;fillColor=#dae8fc;strokeColor=#6c8ebf;" parent="kp9dLLuNeDpNEy_56DQ8-1" vertex="1">
                    <mxGeometry x="217" y="180" width="24" height="24" as="geometry"/>
                </mxCell>
                <mxCell id="kp9dLLuNeDpNEy_56DQ8-16" value="" style="rounded=1;whiteSpace=wrap;html=1;" parent="kp9dLLuNeDpNEy_56DQ8-1" vertex="1">
                    <mxGeometry x="600" y="160" width="120" height="160" as="geometry"/>
                </mxCell>
                <mxCell id="kp9dLLuNeDpNEy_56DQ8-17" value="Service" style="text;html=1;strokeColor=none;fillColor=none;align=center;verticalAlign=middle;whiteSpace=wrap;rounded=0;" parent="kp9dLLuNeDpNEy_56DQ8-1" vertex="1">
                    <mxGeometry x="640" y="330" width="40" height="20" as="geometry"/>
                </mxCell>
                <mxCell id="kp9dLLuNeDpNEy_56DQ8-18" value="" style="rounded=1;whiteSpace=wrap;html=1;" parent="kp9dLLuNeDpNEy_56DQ8-1" vertex="1">
                    <mxGeometry x="620" y="200" width="80" height="80" as="geometry"/>
                </mxCell>
                <mxCell id="kp9dLLuNeDpNEy_56DQ8-19" value="" style="outlineConnect=0;dashed=0;verticalLabelPosition=bottom;verticalAlign=top;align=center;html=1;shape=mxgraph.aws3.classic_load_balancer;fillColor=#F58534;gradientColor=none;" parent="kp9dLLuNeDpNEy_56DQ8-1" vertex="1">
                    <mxGeometry x="645.5" y="210" width="29" height="32" as="geometry"/>
                </mxCell>
                <mxCell id="kp9dLLuNeDpNEy_56DQ8-20" value="HTTP" style="text;html=1;strokeColor=none;fillColor=none;align=center;verticalAlign=middle;whiteSpace=wrap;rounded=0;" parent="kp9dLLuNeDpNEy_56DQ8-1" vertex="1">
                    <mxGeometry x="640" y="250" width="40" height="20" as="geometry"/>
                </mxCell>
                <mxCell id="kp9dLLuNeDpNEy_56DQ8-21" value="" style="ellipse;whiteSpace=wrap;html=1;aspect=fixed;fillColor=#f8cecc;strokeColor=#b85450;" parent="kp9dLLuNeDpNEy_56DQ8-1" vertex="1">
                    <mxGeometry x="690" y="270" width="24" height="24" as="geometry"/>
                </mxCell>
                <mxCell id="kp9dLLuNeDpNEy_56DQ8-23" value="172.16.94.11:32235" style="rounded=1;whiteSpace=wrap;html=1;fillColor=#f8cecc;strokeColor=#b85450;" parent="kp9dLLuNeDpNEy_56DQ8-1" vertex="1">
                    <mxGeometry x="270" y="130" width="150" height="30" as="geometry"/>
                </mxCell>
                <mxCell id="kp9dLLuNeDpNEy_56DQ8-24" value="172.16.94.12:32235" style="rounded=1;whiteSpace=wrap;html=1;fillColor=#f8cecc;strokeColor=#b85450;" parent="kp9dLLuNeDpNEy_56DQ8-1" vertex="1">
                    <mxGeometry x="270" y="270" width="150" height="30" as="geometry"/>
                </mxCell>
                <mxCell id="kp9dLLuNeDpNEy_56DQ8-29" style="edgeStyle=orthogonalEdgeStyle;rounded=0;orthogonalLoop=1;jettySize=auto;html=1;exitX=0.5;exitY=1;exitDx=0;exitDy=0;" parent="kp9dLLuNeDpNEy_56DQ8-1" edge="1">
                    <mxGeometry relative="1" as="geometry">
                        <mxPoint x="110" y="575" as="sourcePoint"/>
                        <mxPoint x="110" y="575" as="targetPoint"/>
                    </mxGeometry>
                </mxCell>
                <mxCell id="2p9e1gYOI2PKRm_jXe4q-0" value="" style="rounded=1;whiteSpace=wrap;html=1;" parent="kp9dLLuNeDpNEy_56DQ8-1" vertex="1">
                    <mxGeometry x="40" y="490" width="440" height="100" as="geometry"/>
                </mxCell>
                <mxCell id="2p9e1gYOI2PKRm_jXe4q-1" value="" style="rounded=1;whiteSpace=wrap;html=1;" parent="kp9dLLuNeDpNEy_56DQ8-1" vertex="1">
                    <mxGeometry x="70" y="495" width="80" height="90" as="geometry"/>
                </mxCell>
                <mxCell id="2p9e1gYOI2PKRm_jXe4q-2" value="&lt;font style=&quot;font-size: 16px&quot;&gt;&lt;b&gt;NodePort II&lt;/b&gt;&lt;/font&gt;" style="text;html=1;strokeColor=none;fillColor=none;align=center;verticalAlign=middle;whiteSpace=wrap;rounded=0;" parent="kp9dLLuNeDpNEy_56DQ8-1" vertex="1">
                    <mxGeometry x="230" y="410" width="350" height="20" as="geometry"/>
                </mxCell>
                <mxCell id="2p9e1gYOI2PKRm_jXe4q-3" value="" style="fontColor=#0066CC;verticalAlign=top;verticalLabelPosition=bottom;labelPosition=center;align=center;html=1;outlineConnect=0;fillColor=#CCCCCC;strokeColor=#6881B3;gradientColor=none;gradientDirection=north;strokeWidth=2;shape=mxgraph.networks.desktop_pc;" parent="kp9dLLuNeDpNEy_56DQ8-1" vertex="1">
                    <mxGeometry x="79" y="510" width="30" height="60" as="geometry"/>
                </mxCell>
                <mxCell id="2p9e1gYOI2PKRm_jXe4q-4" style="edgeStyle=orthogonalEdgeStyle;rounded=0;orthogonalLoop=1;jettySize=auto;html=1;exitX=0.5;exitY=1;exitDx=0;exitDy=0;" parent="kp9dLLuNeDpNEy_56DQ8-1" source="2p9e1gYOI2PKRm_jXe4q-1" target="2p9e1gYOI2PKRm_jXe4q-1" edge="1">
                    <mxGeometry relative="1" as="geometry"/>
                </mxCell>
                <mxCell id="2p9e1gYOI2PKRm_jXe4q-5" value="POD" style="text;html=1;strokeColor=none;fillColor=none;align=center;verticalAlign=middle;whiteSpace=wrap;rounded=0;" parent="kp9dLLuNeDpNEy_56DQ8-1" vertex="1">
                    <mxGeometry x="109" y="530" width="40" height="20" as="geometry"/>
                </mxCell>
                <mxCell id="2p9e1gYOI2PKRm_jXe4q-6" value="" style="rounded=1;whiteSpace=wrap;html=1;" parent="kp9dLLuNeDpNEy_56DQ8-1" vertex="1">
                    <mxGeometry x="170" y="495" width="80" height="90" as="geometry"/>
                </mxCell>
                <mxCell id="2p9e1gYOI2PKRm_jXe4q-7" value="" style="fontColor=#0066CC;verticalAlign=top;verticalLabelPosition=bottom;labelPosition=center;align=center;html=1;outlineConnect=0;fillColor=#CCCCCC;strokeColor=#6881B3;gradientColor=none;gradientDirection=north;strokeWidth=2;shape=mxgraph.networks.desktop_pc;" parent="kp9dLLuNeDpNEy_56DQ8-1" vertex="1">
                    <mxGeometry x="179" y="510" width="30" height="60" as="geometry"/>
                </mxCell>
                <mxCell id="2p9e1gYOI2PKRm_jXe4q-8" value="POD" style="text;html=1;strokeColor=none;fillColor=none;align=center;verticalAlign=middle;whiteSpace=wrap;rounded=0;" parent="kp9dLLuNeDpNEy_56DQ8-1" vertex="1">
                    <mxGeometry x="209" y="530" width="40" height="20" as="geometry"/>
                </mxCell>
                <mxCell id="2p9e1gYOI2PKRm_jXe4q-9" value="kube-proxy" style="rounded=0;whiteSpace=wrap;html=1;rotation=90;fillColor=#f8cecc;strokeColor=#b85450;" parent="kp9dLLuNeDpNEy_56DQ8-1" vertex="1">
                    <mxGeometry x="400" y="520" width="90" height="40" as="geometry"/>
                </mxCell>
                <mxCell id="2p9e1gYOI2PKRm_jXe4q-10" value="" style="rounded=1;whiteSpace=wrap;html=1;" parent="kp9dLLuNeDpNEy_56DQ8-1" vertex="1">
                    <mxGeometry x="40" y="630" width="440" height="100" as="geometry"/>
                </mxCell>
                <mxCell id="2p9e1gYOI2PKRm_jXe4q-11" value="kube-proxy" style="rounded=0;whiteSpace=wrap;html=1;rotation=90;fillColor=#f8cecc;strokeColor=#b85450;" parent="kp9dLLuNeDpNEy_56DQ8-1" vertex="1">
                    <mxGeometry x="400" y="660" width="90" height="40" as="geometry"/>
                </mxCell>
                <mxCell id="2p9e1gYOI2PKRm_jXe4q-12" value=".1" style="ellipse;whiteSpace=wrap;html=1;aspect=fixed;fillColor=#dae8fc;strokeColor=#6c8ebf;" parent="kp9dLLuNeDpNEy_56DQ8-1" vertex="1">
                    <mxGeometry x="117" y="550" width="24" height="24" as="geometry"/>
                </mxCell>
                <mxCell id="2p9e1gYOI2PKRm_jXe4q-13" value=".9" style="ellipse;whiteSpace=wrap;html=1;aspect=fixed;fillColor=#dae8fc;strokeColor=#6c8ebf;" parent="kp9dLLuNeDpNEy_56DQ8-1" vertex="1">
                    <mxGeometry x="217" y="550" width="24" height="24" as="geometry"/>
                </mxCell>
                <mxCell id="2p9e1gYOI2PKRm_jXe4q-14" value="" style="rounded=1;whiteSpace=wrap;html=1;" parent="kp9dLLuNeDpNEy_56DQ8-1" vertex="1">
                    <mxGeometry x="600" y="530" width="120" height="160" as="geometry"/>
                </mxCell>
                <mxCell id="2p9e1gYOI2PKRm_jXe4q-15" value="Service" style="text;html=1;strokeColor=none;fillColor=none;align=center;verticalAlign=middle;whiteSpace=wrap;rounded=0;" parent="kp9dLLuNeDpNEy_56DQ8-1" vertex="1">
                    <mxGeometry x="640" y="700" width="40" height="20" as="geometry"/>
                </mxCell>
                <mxCell id="2p9e1gYOI2PKRm_jXe4q-16" value="" style="rounded=1;whiteSpace=wrap;html=1;" parent="kp9dLLuNeDpNEy_56DQ8-1" vertex="1">
                    <mxGeometry x="620" y="570" width="80" height="80" as="geometry"/>
                </mxCell>
                <mxCell id="2p9e1gYOI2PKRm_jXe4q-17" value="" style="outlineConnect=0;dashed=0;verticalLabelPosition=bottom;verticalAlign=top;align=center;html=1;shape=mxgraph.aws3.classic_load_balancer;fillColor=#F58534;gradientColor=none;" parent="kp9dLLuNeDpNEy_56DQ8-1" vertex="1">
                    <mxGeometry x="645.5" y="580" width="29" height="32" as="geometry"/>
                </mxCell>
                <mxCell id="2p9e1gYOI2PKRm_jXe4q-18" value="HTTP" style="text;html=1;strokeColor=none;fillColor=none;align=center;verticalAlign=middle;whiteSpace=wrap;rounded=0;" parent="kp9dLLuNeDpNEy_56DQ8-1" vertex="1">
                    <mxGeometry x="640" y="620" width="40" height="20" as="geometry"/>
                </mxCell>
                <mxCell id="2p9e1gYOI2PKRm_jXe4q-19" value="" style="ellipse;whiteSpace=wrap;html=1;aspect=fixed;fillColor=#f8cecc;strokeColor=#b85450;" parent="kp9dLLuNeDpNEy_56DQ8-1" vertex="1">
                    <mxGeometry x="690" y="640" width="24" height="24" as="geometry"/>
                </mxCell>
                <mxCell id="2p9e1gYOI2PKRm_jXe4q-20" value="172.16.94.11:32235" style="rounded=1;whiteSpace=wrap;html=1;fillColor=#f8cecc;strokeColor=#b85450;" parent="kp9dLLuNeDpNEy_56DQ8-1" vertex="1">
                    <mxGeometry x="270" y="500" width="150" height="30" as="geometry"/>
                </mxCell>
                <mxCell id="2p9e1gYOI2PKRm_jXe4q-21" value="172.16.94.12:32235" style="rounded=1;whiteSpace=wrap;html=1;fillColor=#f8cecc;strokeColor=#b85450;" parent="kp9dLLuNeDpNEy_56DQ8-1" vertex="1">
                    <mxGeometry x="270" y="640" width="150" height="30" as="geometry"/>
                </mxCell>
                <mxCell id="2p9e1gYOI2PKRm_jXe4q-22" style="edgeStyle=orthogonalEdgeStyle;rounded=0;orthogonalLoop=1;jettySize=auto;html=1;exitX=0.5;exitY=1;exitDx=0;exitDy=0;" parent="kp9dLLuNeDpNEy_56DQ8-1" edge="1">
                    <mxGeometry relative="1" as="geometry">
                        <mxPoint x="110" y="945" as="sourcePoint"/>
                        <mxPoint x="110" y="945" as="targetPoint"/>
                    </mxGeometry>
                </mxCell>
                <mxCell id="NHZDMFr3Z_PiMcNtzCdR-0" value="10.1.22.10:80" style="rounded=1;whiteSpace=wrap;html=1;fillColor=#d5e8d4;strokeColor=#82b366;" parent="kp9dLLuNeDpNEy_56DQ8-1" vertex="1">
                    <mxGeometry x="270" y="547" width="150" height="30" as="geometry"/>
                </mxCell>
                <mxCell id="NHZDMFr3Z_PiMcNtzCdR-1" value="10.1.22.10:80" style="rounded=1;whiteSpace=wrap;html=1;fillColor=#d5e8d4;strokeColor=#82b366;" parent="kp9dLLuNeDpNEy_56DQ8-1" vertex="1">
                    <mxGeometry x="270" y="690" width="150" height="30" as="geometry"/>
                </mxCell>
                <mxCell id="NHZDMFr3Z_PiMcNtzCdR-2" value="10.1.22.10:80" style="rounded=1;whiteSpace=wrap;html=1;fillColor=#d5e8d4;strokeColor=#82b366;" parent="kp9dLLuNeDpNEy_56DQ8-1" vertex="1">
                    <mxGeometry x="585" y="490" width="150" height="30" as="geometry"/>
                </mxCell>
                <mxCell id="NHZDMFr3Z_PiMcNtzCdR-3" value="172.16.94.XY:32235" style="rounded=1;whiteSpace=wrap;html=1;fillColor=#f8cecc;strokeColor=#b85450;" parent="kp9dLLuNeDpNEy_56DQ8-1" vertex="1">
                    <mxGeometry x="585" y="730" width="150" height="30" as="geometry"/>
                </mxCell>
                <mxCell id="NHZDMFr3Z_PiMcNtzCdR-4" value="" style="shape=flexArrow;endArrow=classic;html=1;fillColor=#f8cecc;strokeColor=#b85450;" parent="kp9dLLuNeDpNEy_56DQ8-1" edge="1">
                    <mxGeometry width="50" height="50" relative="1" as="geometry">
                        <mxPoint x="670" y="850" as="sourcePoint"/>
                        <mxPoint x="670" y="770" as="targetPoint"/>
                    </mxGeometry>
                </mxCell>
                <mxCell id="NHZDMFr3Z_PiMcNtzCdR-5" value="External Traffic" style="text;html=1;strokeColor=none;fillColor=none;align=center;verticalAlign=middle;whiteSpace=wrap;rounded=0;" parent="kp9dLLuNeDpNEy_56DQ8-1" vertex="1">
                    <mxGeometry x="624" y="860" width="90" height="20" as="geometry"/>
                </mxCell>
            </root>
        </mxGraphModel>
    </diagram>
    <diagram id="x7hQLVccHre1WEHrnEAD" name="Page-9">
        <mxGraphModel dx="730" dy="495" grid="1" gridSize="10" guides="1" tooltips="1" connect="1" arrows="1" fold="1" page="1" pageScale="1" pageWidth="827" pageHeight="1169" math="0" shadow="0">
            <root>
                <mxCell id="rjFPrqRhxxSfxwMQj-1W-0"/>
                <mxCell id="rjFPrqRhxxSfxwMQj-1W-1" parent="rjFPrqRhxxSfxwMQj-1W-0"/>
                <mxCell id="rjFPrqRhxxSfxwMQj-1W-2" value="" style="rounded=1;whiteSpace=wrap;html=1;" parent="rjFPrqRhxxSfxwMQj-1W-1" vertex="1">
                    <mxGeometry x="40" y="120" width="440" height="100" as="geometry"/>
                </mxCell>
                <mxCell id="rjFPrqRhxxSfxwMQj-1W-3" value="" style="rounded=1;whiteSpace=wrap;html=1;" parent="rjFPrqRhxxSfxwMQj-1W-1" vertex="1">
                    <mxGeometry x="70" y="125" width="80" height="90" as="geometry"/>
                </mxCell>
                <mxCell id="rjFPrqRhxxSfxwMQj-1W-4" value="&lt;font style=&quot;font-size: 16px&quot;&gt;&lt;b&gt;LoadBalancer I&lt;/b&gt;&lt;/font&gt;" style="text;html=1;strokeColor=none;fillColor=none;align=center;verticalAlign=middle;whiteSpace=wrap;rounded=0;" parent="rjFPrqRhxxSfxwMQj-1W-1" vertex="1">
                    <mxGeometry x="230" y="40" width="350" height="20" as="geometry"/>
                </mxCell>
                <mxCell id="rjFPrqRhxxSfxwMQj-1W-5" value="" style="fontColor=#0066CC;verticalAlign=top;verticalLabelPosition=bottom;labelPosition=center;align=center;html=1;outlineConnect=0;fillColor=#CCCCCC;strokeColor=#6881B3;gradientColor=none;gradientDirection=north;strokeWidth=2;shape=mxgraph.networks.desktop_pc;" parent="rjFPrqRhxxSfxwMQj-1W-1" vertex="1">
                    <mxGeometry x="79" y="140" width="30" height="60" as="geometry"/>
                </mxCell>
                <mxCell id="rjFPrqRhxxSfxwMQj-1W-6" style="edgeStyle=orthogonalEdgeStyle;rounded=0;orthogonalLoop=1;jettySize=auto;html=1;exitX=0.5;exitY=1;exitDx=0;exitDy=0;" parent="rjFPrqRhxxSfxwMQj-1W-1" source="rjFPrqRhxxSfxwMQj-1W-3" target="rjFPrqRhxxSfxwMQj-1W-3" edge="1">
                    <mxGeometry relative="1" as="geometry"/>
                </mxCell>
                <mxCell id="rjFPrqRhxxSfxwMQj-1W-7" value="POD" style="text;html=1;strokeColor=none;fillColor=none;align=center;verticalAlign=middle;whiteSpace=wrap;rounded=0;" parent="rjFPrqRhxxSfxwMQj-1W-1" vertex="1">
                    <mxGeometry x="109" y="160" width="40" height="20" as="geometry"/>
                </mxCell>
                <mxCell id="rjFPrqRhxxSfxwMQj-1W-8" value="" style="rounded=1;whiteSpace=wrap;html=1;" parent="rjFPrqRhxxSfxwMQj-1W-1" vertex="1">
                    <mxGeometry x="170" y="125" width="80" height="90" as="geometry"/>
                </mxCell>
                <mxCell id="rjFPrqRhxxSfxwMQj-1W-9" value="" style="fontColor=#0066CC;verticalAlign=top;verticalLabelPosition=bottom;labelPosition=center;align=center;html=1;outlineConnect=0;fillColor=#CCCCCC;strokeColor=#6881B3;gradientColor=none;gradientDirection=north;strokeWidth=2;shape=mxgraph.networks.desktop_pc;" parent="rjFPrqRhxxSfxwMQj-1W-1" vertex="1">
                    <mxGeometry x="179" y="140" width="30" height="60" as="geometry"/>
                </mxCell>
                <mxCell id="rjFPrqRhxxSfxwMQj-1W-10" value="POD" style="text;html=1;strokeColor=none;fillColor=none;align=center;verticalAlign=middle;whiteSpace=wrap;rounded=0;" parent="rjFPrqRhxxSfxwMQj-1W-1" vertex="1">
                    <mxGeometry x="209" y="160" width="40" height="20" as="geometry"/>
                </mxCell>
                <mxCell id="rjFPrqRhxxSfxwMQj-1W-11" value="kube-proxy" style="rounded=0;whiteSpace=wrap;html=1;rotation=90;fillColor=#f8cecc;strokeColor=#b85450;" parent="rjFPrqRhxxSfxwMQj-1W-1" vertex="1">
                    <mxGeometry x="400" y="150" width="90" height="40" as="geometry"/>
                </mxCell>
                <mxCell id="rjFPrqRhxxSfxwMQj-1W-12" value="" style="rounded=1;whiteSpace=wrap;html=1;" parent="rjFPrqRhxxSfxwMQj-1W-1" vertex="1">
                    <mxGeometry x="40" y="260" width="440" height="100" as="geometry"/>
                </mxCell>
                <mxCell id="rjFPrqRhxxSfxwMQj-1W-13" value="kube-proxy" style="rounded=0;whiteSpace=wrap;html=1;rotation=90;fillColor=#f8cecc;strokeColor=#b85450;" parent="rjFPrqRhxxSfxwMQj-1W-1" vertex="1">
                    <mxGeometry x="400" y="290" width="90" height="40" as="geometry"/>
                </mxCell>
                <mxCell id="rjFPrqRhxxSfxwMQj-1W-14" value=".1" style="ellipse;whiteSpace=wrap;html=1;aspect=fixed;fillColor=#dae8fc;strokeColor=#6c8ebf;" parent="rjFPrqRhxxSfxwMQj-1W-1" vertex="1">
                    <mxGeometry x="117" y="180" width="24" height="24" as="geometry"/>
                </mxCell>
                <mxCell id="rjFPrqRhxxSfxwMQj-1W-15" value=".9" style="ellipse;whiteSpace=wrap;html=1;aspect=fixed;fillColor=#dae8fc;strokeColor=#6c8ebf;" parent="rjFPrqRhxxSfxwMQj-1W-1" vertex="1">
                    <mxGeometry x="217" y="180" width="24" height="24" as="geometry"/>
                </mxCell>
                <mxCell id="rjFPrqRhxxSfxwMQj-1W-16" value="" style="rounded=1;whiteSpace=wrap;html=1;" parent="rjFPrqRhxxSfxwMQj-1W-1" vertex="1">
                    <mxGeometry x="600" y="237.5" width="120" height="120" as="geometry"/>
                </mxCell>
                <mxCell id="rjFPrqRhxxSfxwMQj-1W-17" value="Service" style="text;html=1;strokeColor=none;fillColor=none;align=center;verticalAlign=middle;whiteSpace=wrap;rounded=0;" parent="rjFPrqRhxxSfxwMQj-1W-1" vertex="1">
                    <mxGeometry x="645.5" y="362.5" width="40" height="20" as="geometry"/>
                </mxCell>
                <mxCell id="rjFPrqRhxxSfxwMQj-1W-18" value="" style="rounded=1;whiteSpace=wrap;html=1;" parent="rjFPrqRhxxSfxwMQj-1W-1" vertex="1">
                    <mxGeometry x="620" y="252.5" width="80" height="80" as="geometry"/>
                </mxCell>
                <mxCell id="rjFPrqRhxxSfxwMQj-1W-19" value="" style="outlineConnect=0;dashed=0;verticalLabelPosition=bottom;verticalAlign=top;align=center;html=1;shape=mxgraph.aws3.classic_load_balancer;fillColor=#F58534;gradientColor=none;" parent="rjFPrqRhxxSfxwMQj-1W-1" vertex="1">
                    <mxGeometry x="645.5" y="262.5" width="29" height="32" as="geometry"/>
                </mxCell>
                <mxCell id="rjFPrqRhxxSfxwMQj-1W-20" value="HTTP" style="text;html=1;strokeColor=none;fillColor=none;align=center;verticalAlign=middle;whiteSpace=wrap;rounded=0;" parent="rjFPrqRhxxSfxwMQj-1W-1" vertex="1">
                    <mxGeometry x="640" y="302.5" width="40" height="20" as="geometry"/>
                </mxCell>
                <mxCell id="rjFPrqRhxxSfxwMQj-1W-21" value="" style="ellipse;whiteSpace=wrap;html=1;aspect=fixed;fillColor=#e1d5e7;strokeColor=#9673a6;" parent="rjFPrqRhxxSfxwMQj-1W-1" vertex="1">
                    <mxGeometry x="690" y="322.5" width="24" height="24" as="geometry"/>
                </mxCell>
                <mxCell id="rjFPrqRhxxSfxwMQj-1W-24" style="edgeStyle=orthogonalEdgeStyle;rounded=0;orthogonalLoop=1;jettySize=auto;html=1;exitX=0.5;exitY=1;exitDx=0;exitDy=0;" parent="rjFPrqRhxxSfxwMQj-1W-1" edge="1">
                    <mxGeometry relative="1" as="geometry">
                        <mxPoint x="110" y="575" as="sourcePoint"/>
                        <mxPoint x="110" y="575" as="targetPoint"/>
                    </mxGeometry>
                </mxCell>
                <mxCell id="rjFPrqRhxxSfxwMQj-1W-29" style="edgeStyle=orthogonalEdgeStyle;rounded=0;orthogonalLoop=1;jettySize=auto;html=1;exitX=0.5;exitY=1;exitDx=0;exitDy=0;" parent="rjFPrqRhxxSfxwMQj-1W-1" edge="1">
                    <mxGeometry relative="1" as="geometry">
                        <mxPoint x="110" y="585" as="sourcePoint"/>
                        <mxPoint x="110" y="585" as="targetPoint"/>
                    </mxGeometry>
                </mxCell>
                <mxCell id="rjFPrqRhxxSfxwMQj-1W-47" style="edgeStyle=orthogonalEdgeStyle;rounded=0;orthogonalLoop=1;jettySize=auto;html=1;exitX=0.5;exitY=1;exitDx=0;exitDy=0;" parent="rjFPrqRhxxSfxwMQj-1W-1" edge="1">
                    <mxGeometry relative="1" as="geometry">
                        <mxPoint x="110" y="945" as="sourcePoint"/>
                        <mxPoint x="110" y="945" as="targetPoint"/>
                    </mxGeometry>
                </mxCell>
                <mxCell id="rjFPrqRhxxSfxwMQj-1W-52" value="" style="shape=flexArrow;endArrow=classic;html=1;fillColor=#e1d5e7;strokeColor=#9673a6;" parent="rjFPrqRhxxSfxwMQj-1W-1" edge="1">
                    <mxGeometry width="50" height="50" relative="1" as="geometry">
                        <mxPoint x="810" y="500" as="sourcePoint"/>
                        <mxPoint x="740" y="500" as="targetPoint"/>
                        <Array as="points">
                            <mxPoint x="810" y="500"/>
                        </Array>
                    </mxGeometry>
                </mxCell>
                <mxCell id="rjFPrqRhxxSfxwMQj-1W-53" value="External Traffic" style="text;html=1;strokeColor=none;fillColor=none;align=center;verticalAlign=middle;whiteSpace=wrap;rounded=0;" parent="rjFPrqRhxxSfxwMQj-1W-1" vertex="1">
                    <mxGeometry x="734.5" y="450" width="90" height="20" as="geometry"/>
                </mxCell>
                <mxCell id="rjFPrqRhxxSfxwMQj-1W-54" value="PUBLIC IP:80" style="rounded=1;whiteSpace=wrap;html=1;fillColor=#e1d5e7;strokeColor=#9673a6;" parent="rjFPrqRhxxSfxwMQj-1W-1" vertex="1">
                    <mxGeometry x="585" y="120" width="150" height="30" as="geometry"/>
                </mxCell>
                <mxCell id="rjFPrqRhxxSfxwMQj-1W-55" value="" style="outlineConnect=0;dashed=0;verticalLabelPosition=bottom;verticalAlign=top;align=center;html=1;shape=mxgraph.aws3.internet_gateway;fillColor=#F58534;gradientColor=none;" parent="rjFPrqRhxxSfxwMQj-1W-1" vertex="1">
                    <mxGeometry x="760" y="148" width="39" height="42" as="geometry"/>
                </mxCell>
                <mxCell id="rjFPrqRhxxSfxwMQj-1W-58" value="" style="rounded=1;whiteSpace=wrap;html=1;" parent="rjFPrqRhxxSfxwMQj-1W-1" vertex="1">
                    <mxGeometry x="40" y="480" width="440" height="100" as="geometry"/>
                </mxCell>
                <mxCell id="rjFPrqRhxxSfxwMQj-1W-59" value="" style="rounded=1;whiteSpace=wrap;html=1;" parent="rjFPrqRhxxSfxwMQj-1W-1" vertex="1">
                    <mxGeometry x="70" y="485" width="80" height="90" as="geometry"/>
                </mxCell>
                <mxCell id="rjFPrqRhxxSfxwMQj-1W-60" value="&lt;font style=&quot;font-size: 16px&quot;&gt;&lt;b&gt;LoadBalancer II&lt;/b&gt;&lt;/font&gt;" style="text;html=1;strokeColor=none;fillColor=none;align=center;verticalAlign=middle;whiteSpace=wrap;rounded=0;" parent="rjFPrqRhxxSfxwMQj-1W-1" vertex="1">
                    <mxGeometry x="230" y="400" width="350" height="20" as="geometry"/>
                </mxCell>
                <mxCell id="rjFPrqRhxxSfxwMQj-1W-61" value="" style="fontColor=#0066CC;verticalAlign=top;verticalLabelPosition=bottom;labelPosition=center;align=center;html=1;outlineConnect=0;fillColor=#CCCCCC;strokeColor=#6881B3;gradientColor=none;gradientDirection=north;strokeWidth=2;shape=mxgraph.networks.desktop_pc;" parent="rjFPrqRhxxSfxwMQj-1W-1" vertex="1">
                    <mxGeometry x="79" y="500" width="30" height="60" as="geometry"/>
                </mxCell>
                <mxCell id="rjFPrqRhxxSfxwMQj-1W-62" style="edgeStyle=orthogonalEdgeStyle;rounded=0;orthogonalLoop=1;jettySize=auto;html=1;exitX=0.5;exitY=1;exitDx=0;exitDy=0;" parent="rjFPrqRhxxSfxwMQj-1W-1" source="rjFPrqRhxxSfxwMQj-1W-59" target="rjFPrqRhxxSfxwMQj-1W-59" edge="1">
                    <mxGeometry relative="1" as="geometry"/>
                </mxCell>
                <mxCell id="rjFPrqRhxxSfxwMQj-1W-63" value="POD" style="text;html=1;strokeColor=none;fillColor=none;align=center;verticalAlign=middle;whiteSpace=wrap;rounded=0;" parent="rjFPrqRhxxSfxwMQj-1W-1" vertex="1">
                    <mxGeometry x="109" y="520" width="40" height="20" as="geometry"/>
                </mxCell>
                <mxCell id="rjFPrqRhxxSfxwMQj-1W-64" value="" style="rounded=1;whiteSpace=wrap;html=1;" parent="rjFPrqRhxxSfxwMQj-1W-1" vertex="1">
                    <mxGeometry x="170" y="485" width="80" height="90" as="geometry"/>
                </mxCell>
                <mxCell id="rjFPrqRhxxSfxwMQj-1W-65" value="" style="fontColor=#0066CC;verticalAlign=top;verticalLabelPosition=bottom;labelPosition=center;align=center;html=1;outlineConnect=0;fillColor=#CCCCCC;strokeColor=#6881B3;gradientColor=none;gradientDirection=north;strokeWidth=2;shape=mxgraph.networks.desktop_pc;" parent="rjFPrqRhxxSfxwMQj-1W-1" vertex="1">
                    <mxGeometry x="179" y="500" width="30" height="60" as="geometry"/>
                </mxCell>
                <mxCell id="rjFPrqRhxxSfxwMQj-1W-66" value="POD" style="text;html=1;strokeColor=none;fillColor=none;align=center;verticalAlign=middle;whiteSpace=wrap;rounded=0;" parent="rjFPrqRhxxSfxwMQj-1W-1" vertex="1">
                    <mxGeometry x="209" y="520" width="40" height="20" as="geometry"/>
                </mxCell>
                <mxCell id="rjFPrqRhxxSfxwMQj-1W-67" value="kube-proxy" style="rounded=0;whiteSpace=wrap;html=1;rotation=90;fillColor=#f8cecc;strokeColor=#b85450;" parent="rjFPrqRhxxSfxwMQj-1W-1" vertex="1">
                    <mxGeometry x="400" y="510" width="90" height="40" as="geometry"/>
                </mxCell>
                <mxCell id="rjFPrqRhxxSfxwMQj-1W-68" value="" style="rounded=1;whiteSpace=wrap;html=1;" parent="rjFPrqRhxxSfxwMQj-1W-1" vertex="1">
                    <mxGeometry x="40" y="620" width="440" height="100" as="geometry"/>
                </mxCell>
                <mxCell id="rjFPrqRhxxSfxwMQj-1W-69" value="kube-proxy" style="rounded=0;whiteSpace=wrap;html=1;rotation=90;fillColor=#f8cecc;strokeColor=#b85450;" parent="rjFPrqRhxxSfxwMQj-1W-1" vertex="1">
                    <mxGeometry x="400" y="650" width="90" height="40" as="geometry"/>
                </mxCell>
                <mxCell id="rjFPrqRhxxSfxwMQj-1W-70" value=".1" style="ellipse;whiteSpace=wrap;html=1;aspect=fixed;fillColor=#dae8fc;strokeColor=#6c8ebf;" parent="rjFPrqRhxxSfxwMQj-1W-1" vertex="1">
                    <mxGeometry x="117" y="540" width="24" height="24" as="geometry"/>
                </mxCell>
                <mxCell id="rjFPrqRhxxSfxwMQj-1W-71" value=".9" style="ellipse;whiteSpace=wrap;html=1;aspect=fixed;fillColor=#dae8fc;strokeColor=#6c8ebf;" parent="rjFPrqRhxxSfxwMQj-1W-1" vertex="1">
                    <mxGeometry x="217" y="540" width="24" height="24" as="geometry"/>
                </mxCell>
                <mxCell id="rjFPrqRhxxSfxwMQj-1W-72" value="" style="rounded=1;whiteSpace=wrap;html=1;" parent="rjFPrqRhxxSfxwMQj-1W-1" vertex="1">
                    <mxGeometry x="600" y="597.5" width="120" height="120" as="geometry"/>
                </mxCell>
                <mxCell id="rjFPrqRhxxSfxwMQj-1W-73" value="Service" style="text;html=1;strokeColor=none;fillColor=none;align=center;verticalAlign=middle;whiteSpace=wrap;rounded=0;" parent="rjFPrqRhxxSfxwMQj-1W-1" vertex="1">
                    <mxGeometry x="645.5" y="722.5" width="40" height="20" as="geometry"/>
                </mxCell>
                <mxCell id="rjFPrqRhxxSfxwMQj-1W-74" value="" style="rounded=1;whiteSpace=wrap;html=1;" parent="rjFPrqRhxxSfxwMQj-1W-1" vertex="1">
                    <mxGeometry x="620" y="612.5" width="80" height="80" as="geometry"/>
                </mxCell>
                <mxCell id="rjFPrqRhxxSfxwMQj-1W-75" value="" style="outlineConnect=0;dashed=0;verticalLabelPosition=bottom;verticalAlign=top;align=center;html=1;shape=mxgraph.aws3.classic_load_balancer;fillColor=#F58534;gradientColor=none;" parent="rjFPrqRhxxSfxwMQj-1W-1" vertex="1">
                    <mxGeometry x="645.5" y="622.5" width="29" height="32" as="geometry"/>
                </mxCell>
                <mxCell id="rjFPrqRhxxSfxwMQj-1W-76" value="HTTP" style="text;html=1;strokeColor=none;fillColor=none;align=center;verticalAlign=middle;whiteSpace=wrap;rounded=0;" parent="rjFPrqRhxxSfxwMQj-1W-1" vertex="1">
                    <mxGeometry x="640" y="662.5" width="40" height="20" as="geometry"/>
                </mxCell>
                <mxCell id="rjFPrqRhxxSfxwMQj-1W-77" value="" style="ellipse;whiteSpace=wrap;html=1;aspect=fixed;fillColor=#e1d5e7;strokeColor=#9673a6;" parent="rjFPrqRhxxSfxwMQj-1W-1" vertex="1">
                    <mxGeometry x="690" y="682.5" width="24" height="24" as="geometry"/>
                </mxCell>
                <mxCell id="rjFPrqRhxxSfxwMQj-1W-78" style="edgeStyle=orthogonalEdgeStyle;rounded=0;orthogonalLoop=1;jettySize=auto;html=1;exitX=0.5;exitY=1;exitDx=0;exitDy=0;" parent="rjFPrqRhxxSfxwMQj-1W-1" edge="1">
                    <mxGeometry relative="1" as="geometry">
                        <mxPoint x="110" y="935" as="sourcePoint"/>
                        <mxPoint x="110" y="935" as="targetPoint"/>
                    </mxGeometry>
                </mxCell>
                <mxCell id="rjFPrqRhxxSfxwMQj-1W-79" style="edgeStyle=orthogonalEdgeStyle;rounded=0;orthogonalLoop=1;jettySize=auto;html=1;exitX=0.5;exitY=1;exitDx=0;exitDy=0;" parent="rjFPrqRhxxSfxwMQj-1W-1" edge="1">
                    <mxGeometry relative="1" as="geometry">
                        <mxPoint x="110" y="945" as="sourcePoint"/>
                        <mxPoint x="110" y="945" as="targetPoint"/>
                    </mxGeometry>
                </mxCell>
                <mxCell id="rjFPrqRhxxSfxwMQj-1W-80" style="edgeStyle=orthogonalEdgeStyle;rounded=0;orthogonalLoop=1;jettySize=auto;html=1;exitX=0.5;exitY=1;exitDx=0;exitDy=0;" parent="rjFPrqRhxxSfxwMQj-1W-1" edge="1">
                    <mxGeometry relative="1" as="geometry">
                        <mxPoint x="110" y="1305" as="sourcePoint"/>
                        <mxPoint x="110" y="1305" as="targetPoint"/>
                    </mxGeometry>
                </mxCell>
                <mxCell id="rjFPrqRhxxSfxwMQj-1W-83" value="PUBLIC IP:80" style="rounded=1;whiteSpace=wrap;html=1;fillColor=#e1d5e7;strokeColor=#9673a6;" parent="rjFPrqRhxxSfxwMQj-1W-1" vertex="1">
                    <mxGeometry x="585" y="480" width="150" height="30" as="geometry"/>
                </mxCell>
                <mxCell id="rjFPrqRhxxSfxwMQj-1W-84" value="" style="outlineConnect=0;dashed=0;verticalLabelPosition=bottom;verticalAlign=top;align=center;html=1;shape=mxgraph.aws3.internet_gateway;fillColor=#F58534;gradientColor=none;" parent="rjFPrqRhxxSfxwMQj-1W-1" vertex="1">
                    <mxGeometry x="760" y="508" width="39" height="42" as="geometry"/>
                </mxCell>
                <mxCell id="pvNgq4nKBn_HA5QFCHdR-0" value="172.16.94.11:32235" style="rounded=1;whiteSpace=wrap;html=1;fillColor=#f8cecc;strokeColor=#b85450;" parent="rjFPrqRhxxSfxwMQj-1W-1" vertex="1">
                    <mxGeometry x="585" y="515" width="150" height="30" as="geometry"/>
                </mxCell>
                <mxCell id="pvNgq4nKBn_HA5QFCHdR-1" value="10.1.22.10:80" style="rounded=1;whiteSpace=wrap;html=1;fillColor=#d5e8d4;strokeColor=#82b366;" parent="rjFPrqRhxxSfxwMQj-1W-1" vertex="1">
                    <mxGeometry x="585" y="550" width="150" height="30" as="geometry"/>
                </mxCell>
                <mxCell id="pvNgq4nKBn_HA5QFCHdR-2" value="172.16.94.11:32235" style="rounded=1;whiteSpace=wrap;html=1;fillColor=#f8cecc;strokeColor=#b85450;" parent="rjFPrqRhxxSfxwMQj-1W-1" vertex="1">
                    <mxGeometry x="264" y="490" width="150" height="30" as="geometry"/>
                </mxCell>
                <mxCell id="pvNgq4nKBn_HA5QFCHdR-3" value="10.1.22.10:80" style="rounded=1;whiteSpace=wrap;html=1;fillColor=#d5e8d4;strokeColor=#82b366;" parent="rjFPrqRhxxSfxwMQj-1W-1" vertex="1">
                    <mxGeometry x="264" y="537" width="150" height="30" as="geometry"/>
                </mxCell>
                <mxCell id="pvNgq4nKBn_HA5QFCHdR-4" value="172.16.94.11:32235" style="rounded=1;whiteSpace=wrap;html=1;fillColor=#f8cecc;strokeColor=#b85450;" parent="rjFPrqRhxxSfxwMQj-1W-1" vertex="1">
                    <mxGeometry x="264" y="634" width="150" height="30" as="geometry"/>
                </mxCell>
                <mxCell id="pvNgq4nKBn_HA5QFCHdR-5" value="10.1.22.10:80" style="rounded=1;whiteSpace=wrap;html=1;fillColor=#d5e8d4;strokeColor=#82b366;" parent="rjFPrqRhxxSfxwMQj-1W-1" vertex="1">
                    <mxGeometry x="264" y="681" width="150" height="30" as="geometry"/>
                </mxCell>
            </root>
        </mxGraphModel>
    </diagram>
</mxfile>